<?xml version="1.0" encoding="UTF-8"?>
<svg xmlns="http://www.w3.org/2000/svg" xmlns:xlink="http://www.w3.org/1999/xlink" width="1000pt" height="600pt" viewBox="0 0 1000 600" version="1.1">
<defs>
<clipPath id="X6xfkAxRSa__clip1">
  <path d="M 89 132.800781 L 318 132.800781 L 318 539.679688 L 89 539.679688 Z M 89 132.800781 "/>
</clipPath>
<clipPath id="X6xfkAxRSa__clip2">
  <path d="M 405 404 L 634 404 L 634 539.679688 L 405 539.679688 Z M 405 404 "/>
</clipPath>
<clipPath id="X6xfkAxRSa__clip3">
  <path d="M 89 404 L 318 404 L 318 539.679688 L 89 539.679688 Z M 89 404 "/>
</clipPath>
<clipPath id="X6xfkAxRSa__clip4">
  <path d="M 405 449 L 634 449 L 634 539.679688 L 405 539.679688 Z M 405 449 "/>
</clipPath>
<clipPath id="X6xfkAxRSa__clip5">
  <path d="M 89 268 L 318 268 L 318 539.679688 L 89 539.679688 Z M 89 268 "/>
</clipPath>
<clipPath id="X6xfkAxRSa__clip6">
  <path d="M 722 358 L 950 358 L 950 539.679688 L 722 539.679688 Z M 722 358 "/>
</clipPath>
</defs>
<g id="surface145043">
<path style=" stroke:none;fill-rule:nonzero;fill:rgb(43.137255%,41.960784%,83.529412%);fill-opacity:0.698039;" d="M 183 88.800781 L 263 88.800781 L 263 112.800781 L 183 112.800781 Z M 183 88.800781 "/>
<path style=" stroke:none;fill-rule:nonzero;fill:rgb(40%,40%,40%);fill-opacity:1;" d="M 291.015625 109.121094 L 291.015625 98.105469 C 291.015625 96.886719 291.046875 95.714844 291.109375 94.589844 C 290.734375 95.988281 290.390625 97.082031 290.078125 97.871094 L 285.8125 109.121094 L 284.25 109.121094 L 279.921875 97.871094 L 279.265625 95.871094 L 278.875 94.589844 L 278.921875 95.886719 L 278.96875 98.105469 L 278.96875 109.121094 L 276.96875 109.121094 L 276.96875 92.605469 L 279.90625 92.605469 L 284.3125 104.058594 C 284.46875 104.519531 284.613281 105.011719 284.75 105.542969 C 284.894531 106.066406 284.992188 106.445312 285.046875 106.683594 C 285.109375 106.371094 285.238281 105.898438 285.4375 105.261719 C 285.632812 104.628906 285.769531 104.226562 285.84375 104.058594 L 290.15625 92.605469 L 293.03125 92.605469 L 293.03125 109.121094 Z M 298.234375 103.230469 C 298.234375 104.679688 298.535156 105.800781 299.140625 106.589844 C 299.742188 107.382812 300.625 107.777344 301.78125 107.777344 C 302.6875 107.777344 303.414062 107.597656 303.96875 107.230469 C 304.519531 106.855469 304.894531 106.386719 305.09375 105.824219 L 306.9375 106.355469 C 306.1875 108.355469 304.46875 109.355469 301.78125 109.355469 C 299.90625 109.355469 298.472656 108.800781 297.484375 107.683594 C 296.503906 106.558594 296.015625 104.898438 296.015625 102.699219 C 296.015625 100.605469 296.503906 99.003906 297.484375 97.886719 C 298.472656 96.761719 299.875 96.199219 301.6875 96.199219 C 305.414062 96.199219 307.28125 98.449219 307.28125 102.949219 L 307.28125 103.230469 Z M 305.109375 101.605469 C 304.984375 100.273438 304.640625 99.300781 304.078125 98.683594 C 303.515625 98.070312 302.707031 97.761719 301.65625 97.761719 C 300.632812 97.761719 299.820312 98.105469 299.21875 98.792969 C 298.625 99.472656 298.304688 100.410156 298.265625 101.605469 Z M 310.671875 109.121094 L 310.671875 99.386719 C 310.671875 98.503906 310.644531 97.519531 310.59375 96.433594 L 312.59375 96.433594 C 312.65625 97.871094 312.6875 98.738281 312.6875 99.027344 L 312.734375 99.027344 C 313.066406 97.945312 313.453125 97.207031 313.890625 96.808594 C 314.328125 96.402344 314.941406 96.199219 315.734375 96.199219 C 316.015625 96.199219 316.300781 96.242188 316.59375 96.324219 L 316.59375 98.261719 C 316.3125 98.179688 315.9375 98.136719 315.46875 98.136719 C 314.59375 98.136719 313.925781 98.519531 313.46875 99.277344 C 313.007812 100.027344 312.78125 101.105469 312.78125 102.511719 L 312.78125 109.121094 Z M 323.421875 114.105469 C 322.035156 114.105469 320.929688 113.832031 320.109375 113.292969 C 319.296875 112.75 318.769531 111.980469 318.53125 110.980469 L 320.65625 110.667969 C 320.800781 111.25 321.113281 111.699219 321.59375 112.011719 C 322.070312 112.332031 322.703125 112.496094 323.484375 112.496094 C 325.585938 112.496094 326.640625 111.265625 326.640625 108.808594 L 326.640625 106.761719 L 326.609375 106.761719 C 326.210938 107.574219 325.664062 108.191406 324.96875 108.605469 C 324.269531 109.011719 323.457031 109.214844 322.53125 109.214844 C 320.976562 109.214844 319.835938 108.699219 319.109375 107.667969 C 318.378906 106.636719 318.015625 105.019531 318.015625 102.808594 C 318.015625 100.558594 318.40625 98.902344 319.1875 97.839844 C 319.96875 96.777344 321.160156 96.246094 322.765625 96.246094 C 323.660156 96.246094 324.4375 96.449219 325.09375 96.855469 C 325.757812 97.261719 326.273438 97.847656 326.640625 98.605469 L 326.65625 98.605469 C 326.65625 98.378906 326.671875 97.976562 326.703125 97.402344 C 326.734375 96.820312 326.765625 96.496094 326.796875 96.433594 L 328.796875 96.433594 C 328.753906 96.863281 328.734375 97.738281 328.734375 99.058594 L 328.734375 108.761719 C 328.734375 112.324219 326.960938 114.105469 323.421875 114.105469 Z M 326.640625 102.777344 C 326.640625 101.746094 326.5 100.863281 326.21875 100.121094 C 325.9375 99.371094 325.535156 98.800781 325.015625 98.402344 C 324.503906 98.007812 323.925781 97.808594 323.28125 97.808594 C 322.207031 97.808594 321.421875 98.199219 320.921875 98.980469 C 320.429688 99.761719 320.1875 101.027344 320.1875 102.777344 C 320.1875 104.519531 320.414062 105.769531 320.875 106.527344 C 321.34375 107.277344 322.132812 107.652344 323.25 107.652344 C 323.914062 107.652344 324.503906 107.460938 325.015625 107.074219 C 325.535156 106.679688 325.9375 106.117188 326.21875 105.386719 C 326.5 104.660156 326.640625 103.789062 326.640625 102.777344 Z M 334.234375 103.230469 C 334.234375 104.679688 334.535156 105.800781 335.140625 106.589844 C 335.742188 107.382812 336.625 107.777344 337.78125 107.777344 C 338.6875 107.777344 339.414062 107.597656 339.96875 107.230469 C 340.519531 106.855469 340.894531 106.386719 341.09375 105.824219 L 342.9375 106.355469 C 342.1875 108.355469 340.46875 109.355469 337.78125 109.355469 C 335.90625 109.355469 334.472656 108.800781 333.484375 107.683594 C 332.503906 106.558594 332.015625 104.898438 332.015625 102.699219 C 332.015625 100.605469 332.503906 99.003906 333.484375 97.886719 C 334.472656 96.761719 335.875 96.199219 337.6875 96.199219 C 341.414062 96.199219 343.28125 98.449219 343.28125 102.949219 L 343.28125 103.230469 Z M 341.109375 101.605469 C 340.984375 100.273438 340.640625 99.300781 340.078125 98.683594 C 339.515625 98.070312 338.707031 97.761719 337.65625 97.761719 C 336.632812 97.761719 335.820312 98.105469 335.21875 98.792969 C 334.625 99.472656 334.304688 100.410156 334.265625 101.605469 Z M 354.625 107.074219 C 354.226562 107.886719 353.707031 108.472656 353.0625 108.824219 C 352.425781 109.175781 351.628906 109.355469 350.671875 109.355469 C 349.066406 109.355469 347.890625 108.820312 347.140625 107.746094 C 346.390625 106.664062 346.015625 105.027344 346.015625 102.839844 C 346.015625 98.414062 347.566406 96.199219 350.671875 96.199219 C 351.628906 96.199219 352.425781 96.378906 353.0625 96.730469 C 353.707031 97.085938 354.226562 97.644531 354.625 98.402344 L 354.640625 98.402344 L 354.625 96.996094 L 354.625 91.730469 L 356.734375 91.730469 L 356.734375 106.511719 C 356.734375 107.824219 356.753906 108.695312 356.796875 109.121094 L 354.78125 109.121094 C 354.757812 108.996094 354.734375 108.710938 354.703125 108.261719 C 354.679688 107.804688 354.671875 107.410156 354.671875 107.074219 Z M 348.21875 102.761719 C 348.21875 104.542969 348.453125 105.820312 348.921875 106.589844 C 349.390625 107.351562 350.15625 107.730469 351.21875 107.730469 C 352.40625 107.730469 353.269531 107.320312 353.8125 106.496094 C 354.351562 105.664062 354.625 104.371094 354.625 102.621094 C 354.625 100.945312 354.351562 99.714844 353.8125 98.933594 C 353.269531 98.152344 352.410156 97.761719 351.234375 97.761719 C 350.171875 97.761719 349.398438 98.160156 348.921875 98.949219 C 348.453125 99.730469 348.21875 101.003906 348.21875 102.761719 Z M 379.75 97.574219 C 379.75 99.136719 379.238281 100.382812 378.21875 101.308594 C 377.195312 102.226562 375.8125 102.683594 374.0625 102.683594 L 369.203125 102.683594 L 369.203125 109.121094 L 366.96875 109.121094 L 366.96875 92.605469 L 373.921875 92.605469 C 375.773438 92.605469 377.207031 93.042969 378.21875 93.917969 C 379.238281 94.785156 379.75 96.003906 379.75 97.574219 Z M 377.5 97.605469 C 377.5 95.472656 376.21875 94.402344 373.65625 94.402344 L 369.203125 94.402344 L 369.203125 100.917969 L 373.75 100.917969 C 376.25 100.917969 377.5 99.816406 377.5 97.605469 Z M 394.640625 109.121094 L 390.359375 102.261719 L 385.203125 102.261719 L 385.203125 109.121094 L 382.96875 109.121094 L 382.96875 92.605469 L 390.734375 92.605469 C 392.597656 92.605469 394.035156 93.023438 395.046875 93.855469 C 396.054688 94.691406 396.5625 95.847656 396.5625 97.324219 C 396.5625 98.554688 396.203125 99.589844 395.484375 100.433594 C 394.773438 101.269531 393.789062 101.792969 392.53125 102.011719 L 397.21875 109.121094 Z M 394.3125 97.355469 C 394.3125 96.398438 393.984375 95.667969 393.328125 95.167969 C 392.679688 94.660156 391.742188 94.402344 390.515625 94.402344 L 385.203125 94.402344 L 385.203125 100.496094 L 390.609375 100.496094 C 391.785156 100.496094 392.695312 100.222656 393.34375 99.667969 C 393.988281 99.117188 394.3125 98.347656 394.3125 97.355469 Z M 410.140625 105.621094 C 410.140625 106.808594 409.6875 107.730469 408.78125 108.386719 C 407.875 109.035156 406.609375 109.355469 404.984375 109.355469 C 403.410156 109.355469 402.195312 109.097656 401.34375 108.574219 C 400.488281 108.054688 399.929688 107.242188 399.671875 106.136719 L 401.53125 105.777344 C 401.707031 106.457031 402.078125 106.957031 402.640625 107.277344 C 403.203125 107.589844 403.984375 107.746094 404.984375 107.746094 C 406.054688 107.746094 406.835938 107.585938 407.328125 107.261719 C 407.828125 106.929688 408.078125 106.433594 408.078125 105.777344 C 408.078125 105.277344 407.90625 104.871094 407.5625 104.558594 C 407.21875 104.246094 406.664062 103.992188 405.90625 103.792969 L 404.390625 103.386719 C 403.179688 103.074219 402.320312 102.769531 401.8125 102.464844 C 401.300781 102.164062 400.898438 101.800781 400.609375 101.371094 C 400.316406 100.945312 400.171875 100.417969 400.171875 99.792969 C 400.171875 98.636719 400.582031 97.757812 401.40625 97.152344 C 402.226562 96.550781 403.429688 96.246094 405.015625 96.246094 C 406.410156 96.246094 407.519531 96.492188 408.34375 96.980469 C 409.164062 97.472656 409.6875 98.257812 409.90625 99.339844 L 408.015625 99.574219 C 407.898438 99.011719 407.582031 98.585938 407.0625 98.292969 C 406.550781 97.992188 405.867188 97.839844 405.015625 97.839844 C 404.054688 97.839844 403.347656 97.988281 402.890625 98.277344 C 402.441406 98.558594 402.21875 98.992188 402.21875 99.574219 C 402.21875 99.941406 402.3125 100.242188 402.5 100.480469 C 402.6875 100.710938 402.960938 100.910156 403.328125 101.074219 C 403.703125 101.230469 404.476562 101.457031 405.65625 101.746094 C 406.769531 102.027344 407.570312 102.289062 408.0625 102.527344 C 408.5625 102.769531 408.953125 103.035156 409.234375 103.324219 C 409.523438 103.605469 409.75 103.941406 409.90625 104.324219 C 410.0625 104.699219 410.140625 105.132812 410.140625 105.621094 Z M 275 87.394531 "/>
<path style=" stroke:none;fill-rule:nonzero;fill:rgb(15.686275%,65.490196%,27.058824%);fill-opacity:0.698039;" d="M 431 88.800781 L 511 88.800781 L 511 112.800781 L 431 112.800781 Z M 431 88.800781 "/>
<path style=" stroke:none;fill-rule:nonzero;fill:rgb(40%,40%,40%);fill-opacity:1;" d="M 540.515625 100.792969 C 540.515625 102.511719 540.1875 104.023438 539.53125 105.324219 C 538.875 106.617188 537.925781 107.613281 536.6875 108.308594 C 535.457031 109.007812 534 109.355469 532.3125 109.355469 C 530.625 109.355469 529.160156 109.011719 527.921875 108.324219 C 526.691406 107.636719 525.753906 106.644531 525.109375 105.339844 C 524.460938 104.039062 524.140625 102.523438 524.140625 100.792969 C 524.140625 98.148438 524.859375 96.082031 526.296875 94.589844 C 527.742188 93.101562 529.757812 92.355469 532.34375 92.355469 C 534.019531 92.355469 535.472656 92.695312 536.703125 93.371094 C 537.941406 94.039062 538.882812 95.007812 539.53125 96.277344 C 540.1875 97.550781 540.515625 99.054688 540.515625 100.792969 Z M 538.234375 100.792969 C 538.234375 98.730469 537.71875 97.117188 536.6875 95.949219 C 535.664062 94.773438 534.21875 94.183594 532.34375 94.183594 C 530.445312 94.183594 528.984375 94.761719 527.953125 95.917969 C 526.921875 97.074219 526.40625 98.699219 526.40625 100.792969 C 526.40625 102.855469 526.925781 104.496094 527.96875 105.714844 C 529.019531 106.933594 530.46875 107.542969 532.3125 107.542969 C 534.21875 107.542969 535.679688 106.957031 536.703125 105.777344 C 537.722656 104.601562 538.234375 102.941406 538.234375 100.792969 Z M 553.34375 102.714844 C 553.34375 107.144531 551.785156 109.355469 548.671875 109.355469 C 546.722656 109.355469 545.410156 108.621094 544.734375 107.152344 L 544.6875 107.152344 C 544.71875 107.214844 544.734375 107.882812 544.734375 109.152344 L 544.734375 114.105469 L 542.625 114.105469 L 542.625 99.027344 C 542.625 97.726562 542.597656 96.863281 542.546875 96.433594 L 544.59375 96.433594 C 544.59375 96.464844 544.597656 96.582031 544.609375 96.777344 C 544.628906 96.964844 544.648438 97.261719 544.671875 97.667969 C 544.691406 98.066406 544.703125 98.335938 544.703125 98.480469 L 544.75 98.480469 C 545.125 97.699219 545.617188 97.128906 546.234375 96.761719 C 546.859375 96.398438 547.671875 96.214844 548.671875 96.214844 C 550.234375 96.214844 551.398438 96.742188 552.171875 97.792969 C 552.953125 98.835938 553.34375 100.476562 553.34375 102.714844 Z M 551.125 102.761719 C 551.125 101.003906 550.882812 99.742188 550.40625 98.980469 C 549.9375 98.222656 549.179688 97.839844 548.140625 97.839844 C 547.304688 97.839844 546.648438 98.019531 546.171875 98.371094 C 545.703125 98.726562 545.34375 99.277344 545.09375 100.027344 C 544.851562 100.769531 544.734375 101.738281 544.734375 102.933594 C 544.734375 104.601562 545 105.832031 545.53125 106.621094 C 546.0625 107.402344 546.921875 107.792969 548.109375 107.792969 C 549.160156 107.792969 549.925781 107.410156 550.40625 106.636719 C 550.882812 105.867188 551.125 104.574219 551.125 102.761719 Z M 558.234375 103.230469 C 558.234375 104.679688 558.535156 105.800781 559.140625 106.589844 C 559.742188 107.382812 560.625 107.777344 561.78125 107.777344 C 562.6875 107.777344 563.414062 107.597656 563.96875 107.230469 C 564.519531 106.855469 564.894531 106.386719 565.09375 105.824219 L 566.9375 106.355469 C 566.1875 108.355469 564.46875 109.355469 561.78125 109.355469 C 559.90625 109.355469 558.472656 108.800781 557.484375 107.683594 C 556.503906 106.558594 556.015625 104.898438 556.015625 102.699219 C 556.015625 100.605469 556.503906 99.003906 557.484375 97.886719 C 558.472656 96.761719 559.875 96.199219 561.6875 96.199219 C 565.414062 96.199219 567.28125 98.449219 567.28125 102.949219 L 567.28125 103.230469 Z M 565.109375 101.605469 C 564.984375 100.273438 564.640625 99.300781 564.078125 98.683594 C 563.515625 98.070312 562.707031 97.761719 561.65625 97.761719 C 560.632812 97.761719 559.820312 98.105469 559.21875 98.792969 C 558.625 99.472656 558.304688 100.410156 558.265625 101.605469 Z M 578.671875 109.121094 L 578.671875 101.074219 C 578.671875 100.242188 578.585938 99.597656 578.421875 99.136719 C 578.253906 98.679688 577.988281 98.351562 577.625 98.152344 C 577.269531 97.945312 576.75 97.839844 576.0625 97.839844 C 575.039062 97.839844 574.238281 98.191406 573.65625 98.886719 C 573.070312 99.574219 572.78125 100.539062 572.78125 101.777344 L 572.78125 109.121094 L 570.671875 109.121094 L 570.671875 99.152344 C 570.671875 97.675781 570.644531 96.769531 570.59375 96.433594 L 572.59375 96.433594 C 572.59375 96.476562 572.597656 96.585938 572.609375 96.761719 C 572.617188 96.929688 572.628906 97.128906 572.640625 97.355469 C 572.648438 97.574219 572.664062 97.992188 572.6875 98.605469 L 572.71875 98.605469 C 573.195312 97.730469 573.753906 97.113281 574.390625 96.746094 C 575.035156 96.382812 575.828125 96.199219 576.765625 96.199219 C 578.160156 96.199219 579.179688 96.550781 579.828125 97.246094 C 580.472656 97.933594 580.796875 99.074219 580.796875 100.667969 L 580.796875 109.121094 Z M 603.75 97.574219 C 603.75 99.136719 603.238281 100.382812 602.21875 101.308594 C 601.195312 102.226562 599.8125 102.683594 598.0625 102.683594 L 593.203125 102.683594 L 593.203125 109.121094 L 590.96875 109.121094 L 590.96875 92.605469 L 597.921875 92.605469 C 599.773438 92.605469 601.207031 93.042969 602.21875 93.917969 C 603.238281 94.785156 603.75 96.003906 603.75 97.574219 Z M 601.5 97.605469 C 601.5 95.472656 600.21875 94.402344 597.65625 94.402344 L 593.203125 94.402344 L 593.203125 100.917969 L 597.75 100.917969 C 600.25 100.917969 601.5 99.816406 601.5 97.605469 Z M 618.640625 109.121094 L 614.359375 102.261719 L 609.203125 102.261719 L 609.203125 109.121094 L 606.96875 109.121094 L 606.96875 92.605469 L 614.734375 92.605469 C 616.597656 92.605469 618.035156 93.023438 619.046875 93.855469 C 620.054688 94.691406 620.5625 95.847656 620.5625 97.324219 C 620.5625 98.554688 620.203125 99.589844 619.484375 100.433594 C 618.773438 101.269531 617.789062 101.792969 616.53125 102.011719 L 621.21875 109.121094 Z M 618.3125 97.355469 C 618.3125 96.398438 617.984375 95.667969 617.328125 95.167969 C 616.679688 94.660156 615.742188 94.402344 614.515625 94.402344 L 609.203125 94.402344 L 609.203125 100.496094 L 614.609375 100.496094 C 615.785156 100.496094 616.695312 100.222656 617.34375 99.667969 C 617.988281 99.117188 618.3125 98.347656 618.3125 97.355469 Z M 634.140625 105.621094 C 634.140625 106.808594 633.6875 107.730469 632.78125 108.386719 C 631.875 109.035156 630.609375 109.355469 628.984375 109.355469 C 627.410156 109.355469 626.195312 109.097656 625.34375 108.574219 C 624.488281 108.054688 623.929688 107.242188 623.671875 106.136719 L 625.53125 105.777344 C 625.707031 106.457031 626.078125 106.957031 626.640625 107.277344 C 627.203125 107.589844 627.984375 107.746094 628.984375 107.746094 C 630.054688 107.746094 630.835938 107.585938 631.328125 107.261719 C 631.828125 106.929688 632.078125 106.433594 632.078125 105.777344 C 632.078125 105.277344 631.90625 104.871094 631.5625 104.558594 C 631.21875 104.246094 630.664062 103.992188 629.90625 103.792969 L 628.390625 103.386719 C 627.179688 103.074219 626.320312 102.769531 625.8125 102.464844 C 625.300781 102.164062 624.898438 101.800781 624.609375 101.371094 C 624.316406 100.945312 624.171875 100.417969 624.171875 99.792969 C 624.171875 98.636719 624.582031 97.757812 625.40625 97.152344 C 626.226562 96.550781 627.429688 96.246094 629.015625 96.246094 C 630.410156 96.246094 631.519531 96.492188 632.34375 96.980469 C 633.164062 97.472656 633.6875 98.257812 633.90625 99.339844 L 632.015625 99.574219 C 631.898438 99.011719 631.582031 98.585938 631.0625 98.292969 C 630.550781 97.992188 629.867188 97.839844 629.015625 97.839844 C 628.054688 97.839844 627.347656 97.988281 626.890625 98.277344 C 626.441406 98.558594 626.21875 98.992188 626.21875 99.574219 C 626.21875 99.941406 626.3125 100.242188 626.5 100.480469 C 626.6875 100.710938 626.960938 100.910156 627.328125 101.074219 C 627.703125 101.230469 628.476562 101.457031 629.65625 101.746094 C 630.769531 102.027344 631.570312 102.289062 632.0625 102.527344 C 632.5625 102.769531 632.953125 103.035156 633.234375 103.324219 C 633.523438 103.605469 633.75 103.941406 633.90625 104.324219 C 634.0625 104.699219 634.140625 105.132812 634.140625 105.621094 Z M 523 87.394531 "/>
<path style=" stroke:none;fill-rule:nonzero;fill:rgb(100%,62.352941%,25.098039%);fill-opacity:0.698039;" d="M 655 88.800781 L 735 88.800781 L 735 112.800781 L 655 112.800781 Z M 655 88.800781 "/>
<path style=" stroke:none;fill-rule:nonzero;fill:rgb(40%,40%,40%);fill-opacity:1;" d="M 749.21875 109.121094 L 749.21875 92.605469 L 751.453125 92.605469 L 751.453125 109.121094 Z M 764.140625 105.621094 C 764.140625 106.808594 763.6875 107.730469 762.78125 108.386719 C 761.875 109.035156 760.609375 109.355469 758.984375 109.355469 C 757.410156 109.355469 756.195312 109.097656 755.34375 108.574219 C 754.488281 108.054688 753.929688 107.242188 753.671875 106.136719 L 755.53125 105.777344 C 755.707031 106.457031 756.078125 106.957031 756.640625 107.277344 C 757.203125 107.589844 757.984375 107.746094 758.984375 107.746094 C 760.054688 107.746094 760.835938 107.585938 761.328125 107.261719 C 761.828125 106.929688 762.078125 106.433594 762.078125 105.777344 C 762.078125 105.277344 761.90625 104.871094 761.5625 104.558594 C 761.21875 104.246094 760.664062 103.992188 759.90625 103.792969 L 758.390625 103.386719 C 757.179688 103.074219 756.320312 102.769531 755.8125 102.464844 C 755.300781 102.164062 754.898438 101.800781 754.609375 101.371094 C 754.316406 100.945312 754.171875 100.417969 754.171875 99.792969 C 754.171875 98.636719 754.582031 97.757812 755.40625 97.152344 C 756.226562 96.550781 757.429688 96.246094 759.015625 96.246094 C 760.410156 96.246094 761.519531 96.492188 762.34375 96.980469 C 763.164062 97.472656 763.6875 98.257812 763.90625 99.339844 L 762.015625 99.574219 C 761.898438 99.011719 761.582031 98.585938 761.0625 98.292969 C 760.550781 97.992188 759.867188 97.839844 759.015625 97.839844 C 758.054688 97.839844 757.347656 97.988281 756.890625 98.277344 C 756.441406 98.558594 756.21875 98.992188 756.21875 99.574219 C 756.21875 99.941406 756.3125 100.242188 756.5 100.480469 C 756.6875 100.710938 756.960938 100.910156 757.328125 101.074219 C 757.703125 101.230469 758.476562 101.457031 759.65625 101.746094 C 760.769531 102.027344 761.570312 102.289062 762.0625 102.527344 C 762.5625 102.769531 762.953125 103.035156 763.234375 103.324219 C 763.523438 103.605469 763.75 103.941406 763.90625 104.324219 C 764.0625 104.699219 764.140625 105.132812 764.140625 105.621094 Z M 776.140625 105.621094 C 776.140625 106.808594 775.6875 107.730469 774.78125 108.386719 C 773.875 109.035156 772.609375 109.355469 770.984375 109.355469 C 769.410156 109.355469 768.195312 109.097656 767.34375 108.574219 C 766.488281 108.054688 765.929688 107.242188 765.671875 106.136719 L 767.53125 105.777344 C 767.707031 106.457031 768.078125 106.957031 768.640625 107.277344 C 769.203125 107.589844 769.984375 107.746094 770.984375 107.746094 C 772.054688 107.746094 772.835938 107.585938 773.328125 107.261719 C 773.828125 106.929688 774.078125 106.433594 774.078125 105.777344 C 774.078125 105.277344 773.90625 104.871094 773.5625 104.558594 C 773.21875 104.246094 772.664062 103.992188 771.90625 103.792969 L 770.390625 103.386719 C 769.179688 103.074219 768.320312 102.769531 767.8125 102.464844 C 767.300781 102.164062 766.898438 101.800781 766.609375 101.371094 C 766.316406 100.945312 766.171875 100.417969 766.171875 99.792969 C 766.171875 98.636719 766.582031 97.757812 767.40625 97.152344 C 768.226562 96.550781 769.429688 96.246094 771.015625 96.246094 C 772.410156 96.246094 773.519531 96.492188 774.34375 96.980469 C 775.164062 97.472656 775.6875 98.257812 775.90625 99.339844 L 774.015625 99.574219 C 773.898438 99.011719 773.582031 98.585938 773.0625 98.292969 C 772.550781 97.992188 771.867188 97.839844 771.015625 97.839844 C 770.054688 97.839844 769.347656 97.988281 768.890625 98.277344 C 768.441406 98.558594 768.21875 98.992188 768.21875 99.574219 C 768.21875 99.941406 768.3125 100.242188 768.5 100.480469 C 768.6875 100.710938 768.960938 100.910156 769.328125 101.074219 C 769.703125 101.230469 770.476562 101.457031 771.65625 101.746094 C 772.769531 102.027344 773.570312 102.289062 774.0625 102.527344 C 774.5625 102.769531 774.953125 103.035156 775.234375 103.324219 C 775.523438 103.605469 775.75 103.941406 775.90625 104.324219 C 776.0625 104.699219 776.140625 105.132812 776.140625 105.621094 Z M 780.6875 96.433594 L 780.6875 104.480469 C 780.6875 105.316406 780.765625 105.964844 780.921875 106.433594 C 781.085938 106.894531 781.347656 107.226562 781.703125 107.433594 C 782.066406 107.632812 782.597656 107.730469 783.296875 107.730469 C 784.304688 107.730469 785.101562 107.382812 785.6875 106.683594 C 786.28125 105.988281 786.578125 105.023438 786.578125 103.792969 L 786.578125 96.433594 L 788.6875 96.433594 L 788.6875 106.417969 C 788.6875 107.886719 788.707031 108.789062 788.75 109.121094 L 786.765625 109.121094 C 786.753906 109.082031 786.742188 108.976562 786.734375 108.808594 C 786.734375 108.632812 786.722656 108.433594 786.703125 108.214844 C 786.691406 107.988281 786.679688 107.566406 786.671875 106.949219 L 786.640625 106.949219 C 786.148438 107.824219 785.585938 108.445312 784.953125 108.808594 C 784.316406 109.171875 783.523438 109.355469 782.578125 109.355469 C 781.191406 109.355469 780.175781 109.011719 779.53125 108.324219 C 778.882812 107.628906 778.5625 106.480469 778.5625 104.886719 L 778.5625 96.433594 Z M 794.234375 103.230469 C 794.234375 104.679688 794.535156 105.800781 795.140625 106.589844 C 795.742188 107.382812 796.625 107.777344 797.78125 107.777344 C 798.6875 107.777344 799.414062 107.597656 799.96875 107.230469 C 800.519531 106.855469 800.894531 106.386719 801.09375 105.824219 L 802.9375 106.355469 C 802.1875 108.355469 800.46875 109.355469 797.78125 109.355469 C 795.90625 109.355469 794.472656 108.800781 793.484375 107.683594 C 792.503906 106.558594 792.015625 104.898438 792.015625 102.699219 C 792.015625 100.605469 792.503906 99.003906 793.484375 97.886719 C 794.472656 96.761719 795.875 96.199219 797.6875 96.199219 C 801.414062 96.199219 803.28125 98.449219 803.28125 102.949219 L 803.28125 103.230469 Z M 801.109375 101.605469 C 800.984375 100.273438 800.640625 99.300781 800.078125 98.683594 C 799.515625 98.070312 798.707031 97.761719 797.65625 97.761719 C 796.632812 97.761719 795.820312 98.105469 795.21875 98.792969 C 794.625 99.472656 794.304688 100.410156 794.265625 101.605469 Z M 816.140625 105.621094 C 816.140625 106.808594 815.6875 107.730469 814.78125 108.386719 C 813.875 109.035156 812.609375 109.355469 810.984375 109.355469 C 809.410156 109.355469 808.195312 109.097656 807.34375 108.574219 C 806.488281 108.054688 805.929688 107.242188 805.671875 106.136719 L 807.53125 105.777344 C 807.707031 106.457031 808.078125 106.957031 808.640625 107.277344 C 809.203125 107.589844 809.984375 107.746094 810.984375 107.746094 C 812.054688 107.746094 812.835938 107.585938 813.328125 107.261719 C 813.828125 106.929688 814.078125 106.433594 814.078125 105.777344 C 814.078125 105.277344 813.90625 104.871094 813.5625 104.558594 C 813.21875 104.246094 812.664062 103.992188 811.90625 103.792969 L 810.390625 103.386719 C 809.179688 103.074219 808.320312 102.769531 807.8125 102.464844 C 807.300781 102.164062 806.898438 101.800781 806.609375 101.371094 C 806.316406 100.945312 806.171875 100.417969 806.171875 99.792969 C 806.171875 98.636719 806.582031 97.757812 807.40625 97.152344 C 808.226562 96.550781 809.429688 96.246094 811.015625 96.246094 C 812.410156 96.246094 813.519531 96.492188 814.34375 96.980469 C 815.164062 97.472656 815.6875 98.257812 815.90625 99.339844 L 814.015625 99.574219 C 813.898438 99.011719 813.582031 98.585938 813.0625 98.292969 C 812.550781 97.992188 811.867188 97.839844 811.015625 97.839844 C 810.054688 97.839844 809.347656 97.988281 808.890625 98.277344 C 808.441406 98.558594 808.21875 98.992188 808.21875 99.574219 C 808.21875 99.941406 808.3125 100.242188 808.5 100.480469 C 808.6875 100.710938 808.960938 100.910156 809.328125 101.074219 C 809.703125 101.230469 810.476562 101.457031 811.65625 101.746094 C 812.769531 102.027344 813.570312 102.289062 814.0625 102.527344 C 814.5625 102.769531 814.953125 103.035156 815.234375 103.324219 C 815.523438 103.605469 815.75 103.941406 815.90625 104.324219 C 816.0625 104.699219 816.140625 105.132812 816.140625 105.621094 Z M 747 87.394531 "/>
<path style=" stroke:none;fill-rule:nonzero;fill:rgb(40%,40%,40%);fill-opacity:1;" d="M 442.375 45.359375 C 441.394531 45.242188 440.40625 45.242188 439.40625 45.359375 C 439.488281 43.804688 439.53125 42.453125 439.53125 41.296875 L 439.53125 36.359375 L 434.546875 36.359375 C 434.472656 38.089844 434.15625 39.683594 433.59375 41.140625 C 433.039062 42.597656 432.117188 44.019531 430.828125 45.40625 C 430.203125 44.6875 429.203125 44.273438 427.828125 44.171875 C 429.578125 42.703125 430.679688 41.292969 431.140625 39.9375 C 431.609375 38.574219 431.84375 36.902344 431.84375 34.921875 L 431.796875 22.78125 L 450.328125 22.78125 L 450.328125 41.328125 C 450.328125 42.628906 449.898438 43.535156 449.046875 44.046875 C 448.234375 44.503906 446.800781 44.726562 444.75 44.71875 C 444.988281 43.675781 444.570312 42.59375 443.5 41.46875 C 444.914062 41.636719 445.921875 41.726562 446.515625 41.734375 C 447.109375 41.746094 447.4375 41.726562 447.5 41.671875 C 447.613281 41.546875 447.65625 41.132812 447.625 40.421875 L 447.625 36.359375 L 442.25 36.359375 L 442.25 41.296875 C 442.25 42.453125 442.289062 43.804688 442.375 45.359375 Z M 442.25 33.953125 L 447.625 33.953125 L 447.625 31.046875 L 442.25 31.046875 Z M 439.53125 33.953125 L 439.53125 31.046875 L 434.5625 31.046875 L 434.5625 33.953125 Z M 442.25 28.640625 L 447.625 28.640625 L 447.625 25.1875 L 442.25 25.1875 Z M 439.53125 28.640625 L 439.53125 25.1875 L 434.53125 25.203125 L 434.53125 28.640625 Z M 458 37.359375 L 458 26.265625 L 475.15625 26.21875 L 475.15625 35.515625 L 472.390625 35.515625 L 472.390625 34.75 L 460.734375 34.75 L 460.734375 37.359375 C 460.734375 39.226562 460.164062 40.902344 459.03125 42.390625 C 457.90625 43.867188 456.328125 44.945312 454.296875 45.625 C 454.054688 44.726562 453.296875 43.894531 452.015625 43.125 C 454.222656 42.738281 455.769531 42.027344 456.65625 40.984375 C 457.550781 39.945312 458 38.734375 458 37.359375 Z M 465.90625 27.359375 C 464.988281 25.734375 463.941406 24.195312 462.765625 22.734375 L 465.078125 20.90625 C 466.335938 22.492188 467.460938 24.15625 468.453125 25.90625 Z M 460.734375 32.265625 L 472.390625 32.265625 L 472.390625 28.71875 L 460.734375 28.75 Z M 500.0625 27.046875 C 499.988281 27.859375 499.988281 28.679688 500.0625 29.5 C 498.8125 29.4375 497.753906 29.40625 496.890625 29.40625 L 479.859375 29.40625 C 478.992188 29.40625 477.9375 29.4375 476.6875 29.5 C 476.78125 28.679688 476.78125 27.859375 476.6875 27.046875 C 477.9375 27.089844 478.992188 27.109375 479.859375 27.109375 L 486.53125 27.109375 L 486.53125 24.71875 L 482.125 24.71875 C 481.257812 24.71875 480.210938 24.75 478.984375 24.8125 C 479.054688 23.992188 479.054688 23.171875 478.984375 22.359375 C 480.210938 22.402344 481.257812 22.421875 482.125 22.421875 L 494.265625 22.421875 C 495.128906 22.421875 496.1875 22.402344 497.4375 22.359375 C 497.363281 23.171875 497.363281 23.992188 497.4375 24.8125 C 496.1875 24.75 495.128906 24.71875 494.265625 24.71875 L 489.1875 24.71875 L 489.1875 27.109375 L 496.890625 27.109375 C 497.753906 27.109375 498.8125 27.089844 500.0625 27.046875 Z M 496.890625 46.703125 C 494.097656 44.410156 490.976562 42.648438 487.53125 41.421875 L 488.296875 38.46875 C 492.117188 39.835938 495.488281 41.71875 498.40625 44.125 Z M 486.859375 33.625 C 487.847656 33.710938 488.8125 33.679688 489.75 33.53125 C 489.875 36.25 489.363281 38.574219 488.21875 40.5 C 487.625 41.5 486.898438 42.382812 486.046875 43.140625 C 485.191406 43.898438 484.171875 44.671875 482.984375 45.453125 C 481.796875 46.242188 480.707031 46.703125 479.71875 46.828125 C 479.238281 45.773438 477.785156 44.859375 475.359375 44.078125 C 480.929688 43.585938 484.476562 41.90625 486 39.03125 C 486.75 37.542969 487.035156 35.742188 486.859375 33.625 Z M 483.53125 41.625 C 482.582031 41.511719 481.632812 41.511719 480.6875 41.625 C 480.769531 39.980469 480.800781 38.527344 480.78125 37.265625 L 480.78125 30.890625 L 495.84375 30.890625 L 495.84375 41.234375 L 493.234375 41.234375 L 493.234375 33.21875 L 483.40625 33.21875 L 483.40625 37.265625 C 483.40625 38.527344 483.445312 39.980469 483.53125 41.625 Z M 508.234375 42.765625 C 507.316406 42.691406 506.390625 42.691406 505.453125 42.765625 C 505.535156 41.339844 505.578125 40.109375 505.578125 39.078125 L 505.578125 38.640625 C 505.234375 38.640625 504.53125 38.667969 503.46875 38.71875 C 503.53125 37.992188 503.53125 37.25 503.46875 36.5 C 504.53125 36.554688 505.234375 36.578125 505.578125 36.578125 L 505.578125 35.546875 C 505.234375 35.546875 504.53125 35.574219 503.46875 35.625 C 503.53125 34.875 503.53125 34.132812 503.46875 33.390625 C 504.019531 33.421875 504.289062 33.554688 504.28125 33.78125 L 503.71875 33.5 L 503.71875 41.0625 C 503.71875 42.105469 503.753906 43.335938 503.828125 44.765625 C 502.910156 44.679688 501.984375 44.679688 501.046875 44.765625 C 501.117188 43.335938 501.15625 42.105469 501.15625 41.0625 L 501.171875 28.875 L 505.53125 28.875 L 505.53125 27.109375 L 503.25 27.109375 C 502.550781 27.109375 501.644531 27.136719 500.53125 27.1875 C 500.632812 26.4375 500.632812 25.699219 500.53125 24.96875 C 501.644531 25.023438 502.550781 25.046875 503.25 25.046875 L 505.515625 25.046875 L 505.453125 21.78125 C 506.359375 21.886719 507.269531 21.886719 508.1875 21.78125 L 508.125 25.046875 L 510.84375 25.046875 C 511.53125 25.046875 512.425781 25.023438 513.53125 24.96875 C 513.445312 25.699219 513.445312 26.4375 513.53125 27.1875 C 512.425781 27.136719 511.53125 27.109375 510.84375 27.109375 L 508.109375 27.109375 L 508.109375 28.875 L 512.90625 28.875 L 512.90625 41.921875 C 512.90625 43.878906 511.53125 44.859375 508.78125 44.859375 L 508.046875 44.859375 C 508.242188 43.898438 507.878906 42.878906 506.953125 41.796875 C 508.203125 41.953125 509.070312 42.039062 509.5625 42.046875 C 510.050781 42.046875 510.304688 42.042969 510.328125 42.03125 C 510.347656 42.011719 510.359375 41.761719 510.359375 41.28125 L 510.359375 30.921875 L 509.484375 30.671875 C 509.546875 30.507812 509.992188 30.554688 510.828125 30.8125 C 510.316406 32.03125 509.800781 32.949219 509.28125 33.5625 C 509.28125 33.5 509.757812 33.445312 510.71875 33.390625 C 510.613281 34.132812 510.613281 34.871094 510.71875 35.609375 L 507.828125 35.3125 L 507.96875 35.265625 L 508.125 36.5625 L 510.609375 36.515625 C 510.546875 37.257812 510.546875 37.984375 510.609375 38.703125 L 508.125 38.65625 L 508.125 39.078125 C 508.125 40.109375 508.160156 41.339844 508.234375 42.765625 Z M 507.8125 30.921875 L 503.671875 30.875 C 503.703125 30.875 503.671875 30.875 503.578125 30.875 L 504.78125 30 L 507.03125 33.828125 L 506.453125 33.8125 L 506.3125 33.484375 C 506.894531 32.652344 507.394531 31.796875 507.8125 30.921875 Z M 523.25 27.34375 L 521.21875 28.96875 L 518.734375 24.671875 L 520.78125 23 Z M 513.453125 45.671875 C 512.992188 44.929688 512.109375 44.46875 510.796875 44.28125 C 512.785156 42.8125 514.164062 41.277344 514.9375 39.671875 C 515.96875 37.601562 516.503906 35.132812 516.546875 32.265625 L 515.203125 32.265625 C 514.503906 32.265625 513.625 32.296875 512.5625 32.359375 C 512.613281 31.558594 512.613281 30.746094 512.5625 29.921875 C 513.625 30.007812 514.503906 30.046875 515.203125 30.046875 L 516.546875 30.046875 L 516.546875 25.8125 C 516.546875 24.710938 516.519531 23.402344 516.46875 21.890625 C 517.3125 21.996094 518.160156 21.996094 519.015625 21.890625 C 518.960938 23.402344 518.9375 24.710938 518.9375 25.8125 L 518.9375 30.046875 L 521.296875 30.046875 C 521.984375 30.046875 522.875 30.007812 523.96875 29.921875 C 523.894531 30.746094 523.894531 31.558594 523.96875 32.359375 C 522.875 32.296875 521.984375 32.265625 521.296875 32.265625 L 519.5 32.265625 C 519.738281 34.109375 520.195312 35.984375 520.875 37.890625 C 521.738281 40.070312 523.085938 42.25 524.921875 44.4375 C 523.859375 44.601562 523.054688 45 522.515625 45.625 C 520.179688 42.664062 518.742188 39.132812 518.203125 35.015625 C 518.253906 37.257812 517.867188 39.230469 517.046875 40.9375 C 516.222656 42.632812 515.023438 44.210938 513.453125 45.671875 Z M 542.296875 44.90625 C 541.441406 44.90625 540.738281 44.632812 540.1875 44.09375 C 539.644531 43.5625 539.375 42.859375 539.375 41.984375 L 539.375 37.71875 C 539.375 36.636719 539.347656 35.34375 539.296875 33.84375 C 540.234375 33.949219 541.175781 33.949219 542.125 33.84375 C 542.050781 35.34375 542.015625 36.636719 542.015625 37.71875 L 542.015625 41.984375 C 542.015625 42.152344 542.046875 42.28125 542.109375 42.375 C 542.179688 42.457031 542.25 42.5 542.3125 42.5 L 545.453125 42.5 C 545.429688 42.519531 545.421875 42.519531 545.421875 42.5 C 545.421875 42.488281 545.421875 42.476562 545.421875 42.46875 C 545.429688 42.46875 545.441406 42.445312 545.453125 42.40625 C 545.460938 42.367188 545.472656 42.320312 545.484375 42.265625 L 546.109375 38.640625 C 546.929688 39.171875 547.773438 39.460938 548.640625 39.5 L 547.71875 43.953125 C 547.664062 44.148438 547.554688 44.359375 547.390625 44.578125 C 547.234375 44.796875 546.992188 44.90625 546.671875 44.90625 Z M 527.984375 43.015625 C 531.234375 42.566406 533.484375 41.589844 534.734375 40.078125 C 535.296875 39.371094 535.554688 38.589844 535.515625 37.734375 C 535.515625 36.640625 535.476562 35.34375 535.40625 33.84375 C 536.351562 33.949219 537.296875 33.949219 538.234375 33.84375 L 538.15625 37.953125 C 538.15625 39.664062 537.398438 41.21875 535.890625 42.625 C 534.390625 44.03125 532.453125 44.992188 530.078125 45.515625 C 529.921875 44.640625 529.222656 43.804688 527.984375 43.015625 Z M 547.5 25.3125 C 547.40625 26.09375 547.40625 26.882812 547.5 27.671875 C 546.300781 27.609375 545.304688 27.578125 544.515625 27.578125 L 540.109375 27.109375 L 540.796875 26.90625 C 540.390625 27.617188 539.800781 28.429688 539.03125 29.34375 C 539.03125 29.34375 538.367188 30.105469 537.046875 31.625 C 536.460938 32.261719 536.078125 32.492188 535.890625 32.3125 L 541.796875 31.546875 L 541.8125 31.75 C 541.488281 31.636719 540.878906 31.292969 539.984375 30.71875 L 541.484375 28.375 C 543.710938 29.804688 545.546875 31.621094 546.984375 33.828125 L 544.640625 35.359375 C 544.097656 34.539062 543.664062 33.933594 543.34375 33.546875 L 541.96875 33.59375 L 532.625 34.375 L 532.453125 32.171875 C 532.984375 32.121094 533.398438 31.964844 533.703125 31.703125 C 534.003906 31.433594 534.59375 30.761719 535.46875 29.6875 C 536.351562 28.605469 536.890625 27.902344 537.078125 27.578125 L 535.234375 27.578125 C 534.429688 27.578125 533.445312 27.609375 532.28125 27.671875 C 532.351562 26.882812 532.351562 26.09375 532.28125 25.3125 C 533.445312 25.355469 534.429688 25.375 535.234375 25.375 L 538.109375 25.375 L 535.875 22.921875 L 537.921875 21.046875 L 541.375 24.828125 L 540.78125 25.375 L 544.515625 25.375 C 545.304688 25.375 546.300781 25.355469 547.5 25.3125 Z M 524.921875 43.609375 C 524.867188 42.390625 524.539062 41.3125 523.9375 40.375 C 525.351562 40.304688 526.578125 40.171875 527.609375 39.984375 C 528.640625 39.789062 530.570312 39.210938 533.40625 38.25 L 533.4375 40.46875 C 530.90625 41.273438 529.15625 41.867188 528.1875 42.25 C 527.226562 42.625 526.140625 43.078125 524.921875 43.609375 Z M 528.71875 21.859375 C 529.582031 22.421875 530.460938 22.886719 531.359375 23.25 C 530.785156 24.46875 530.046875 25.835938 529.140625 27.34375 L 527.921875 29.390625 L 529.046875 29.265625 L 529.484375 29.15625 C 529.828125 28.542969 530.226562 27.621094 530.6875 26.390625 C 531.507812 26.996094 532.359375 27.480469 533.234375 27.84375 C 532.890625 28.59375 532.570312 29.21875 532.28125 29.71875 C 531.988281 30.210938 531.285156 31.289062 530.171875 32.953125 C 529.066406 34.609375 528.492188 35.429688 528.453125 35.40625 L 531.140625 34.984375 L 533.09375 34.5 L 532.984375 37.015625 L 531.4375 37.109375 L 524.8125 38.171875 L 524.5 35.84375 C 525 35.8125 525.300781 35.734375 525.40625 35.609375 C 526.351562 34.371094 527.242188 33.042969 528.078125 31.625 L 524.4375 32.203125 L 524.125 29.84375 C 524.601562 29.835938 524.878906 29.777344 524.953125 29.671875 C 526.160156 27.726562 527.242188 25.632812 528.203125 23.390625 C 528.328125 23.089844 528.5 22.578125 528.71875 21.859375 Z M 566.171875 45.359375 C 565.171875 45.222656 564.175781 45.222656 563.1875 45.359375 C 563.269531 43.773438 563.3125 42.398438 563.3125 41.234375 L 563.3125 31.859375 L 560.546875 31.859375 C 559.554688 31.859375 558.367188 31.898438 556.984375 31.96875 C 557.085938 31.085938 557.085938 30.1875 556.984375 29.28125 C 558.367188 29.355469 559.554688 29.390625 560.546875 29.390625 L 563.3125 29.390625 L 563.3125 25.71875 C 563.3125 24.542969 563.269531 23.167969 563.1875 21.59375 C 564.175781 21.710938 565.171875 21.710938 566.171875 21.59375 C 566.097656 23.167969 566.0625 24.542969 566.0625 25.71875 L 566.0625 29.390625 L 568.6875 29.390625 C 569.675781 29.390625 570.859375 29.355469 572.234375 29.28125 C 572.148438 30.1875 572.148438 31.085938 572.234375 31.96875 C 570.859375 31.898438 569.675781 31.859375 568.6875 31.859375 L 566.0625 31.859375 L 566.0625 41.234375 C 566.0625 42.398438 566.097656 43.773438 566.171875 45.359375 Z M 548.078125 32.203125 C 548.179688 31.328125 548.179688 30.460938 548.078125 29.59375 C 549.421875 29.65625 550.5625 29.6875 551.5 29.6875 L 554.5625 29.6875 L 554.5625 38.84375 L 555.765625 37.296875 L 556.859375 35.484375 L 558.640625 37.4375 L 557.5625 38.640625 L 553.46875 44.4375 L 551.484375 42.921875 C 551.722656 42.398438 551.84375 41.980469 551.84375 41.65625 L 551.84375 32.09375 L 551.5 32.09375 C 550.5625 32.09375 549.421875 32.132812 548.078125 32.203125 Z M 553.796875 27.90625 C 552.753906 26.367188 551.503906 25.011719 550.046875 23.84375 L 551.84375 21.59375 C 553.582031 22.96875 555.035156 24.539062 556.203125 26.296875 Z M 428 19.28125 "/>
<path style="fill:none;stroke-width:1;stroke-linecap:butt;stroke-linejoin:miter;stroke:rgb(0%,0%,0%);stroke-opacity:0.247059;stroke-miterlimit:10;" d="M 23 270.5 L 23 279.839844 M 23 66.400391 L 23 269.5 " transform="matrix(2,0,0,2,0,0)"/>
<path style="fill:none;stroke-width:1;stroke-linecap:butt;stroke-linejoin:miter;stroke:rgb(0%,0%,0%);stroke-opacity:0.0980392;stroke-miterlimit:10;" d="M 181 270.5 L 181 279.839844 M 181 66.400391 L 181 269.5 " transform="matrix(2,0,0,2,0,0)"/>
<path style="fill:none;stroke-width:1;stroke-linecap:butt;stroke-linejoin:miter;stroke:rgb(0%,0%,0%);stroke-opacity:0.0980392;stroke-miterlimit:10;" d="M 339 270.5 L 339 279.839844 M 339 66.400391 L 339 269.5 " transform="matrix(2,0,0,2,0,0)"/>
<path style="fill:none;stroke-width:1;stroke-linecap:butt;stroke-linejoin:miter;stroke:rgb(0%,0%,0%);stroke-opacity:0.0980392;stroke-miterlimit:10;" d="M 497 270.5 L 497 279.839844 M 497 66.400391 L 497 269.5 " transform="matrix(2,0,0,2,0,0)"/>
<path style="fill:none;stroke-width:1;stroke-linecap:butt;stroke-linejoin:miter;stroke:rgb(0%,0%,0%);stroke-opacity:0.0980392;stroke-miterlimit:10;" d="M 22.5 270 L 497.5 270 " transform="matrix(2,0,0,2,0,0)"/>
<path style=" stroke:none;fill-rule:nonzero;fill:rgb(40%,40%,40%);fill-opacity:1;" d="M 135.226562 580.351562 C 134.828125 581.164062 134.308594 581.75 133.664062 582.101562 C 133.027344 582.453125 132.230469 582.632812 131.273438 582.632812 C 129.667969 582.632812 128.492188 582.097656 127.742188 581.023438 C 126.992188 579.941406 126.617188 578.304688 126.617188 576.117188 C 126.617188 571.691406 128.167969 569.476562 131.273438 569.476562 C 132.230469 569.476562 133.027344 569.65625 133.664062 570.007812 C 134.308594 570.363281 134.828125 570.921875 135.226562 571.679688 L 135.242188 571.679688 L 135.226562 570.273438 L 135.226562 565.007812 L 137.335938 565.007812 L 137.335938 579.789062 C 137.335938 581.101562 137.355469 581.972656 137.398438 582.398438 L 135.382812 582.398438 C 135.359375 582.273438 135.335938 581.988281 135.304688 581.539062 C 135.28125 581.082031 135.273438 580.6875 135.273438 580.351562 Z M 128.820312 576.039062 C 128.820312 577.820312 129.054688 579.097656 129.523438 579.867188 C 129.992188 580.628906 130.757812 581.007812 131.820312 581.007812 C 133.007812 581.007812 133.871094 580.597656 134.414062 579.773438 C 134.953125 578.941406 135.226562 577.648438 135.226562 575.898438 C 135.226562 574.222656 134.953125 572.992188 134.414062 572.210938 C 133.871094 571.429688 133.011719 571.039062 131.835938 571.039062 C 130.773438 571.039062 130 571.4375 129.523438 572.226562 C 129.054688 573.007812 128.820312 574.28125 128.820312 576.039062 Z M 144.460938 582.632812 C 143.179688 582.632812 142.214844 582.300781 141.570312 581.632812 C 140.933594 580.957031 140.617188 580.03125 140.617188 578.851562 C 140.617188 577.539062 141.046875 576.535156 141.914062 575.835938 C 142.777344 575.128906 144.171875 574.753906 146.101562 574.710938 L 148.945312 574.664062 L 148.945312 573.976562 C 148.945312 572.945312 148.726562 572.207031 148.289062 571.757812 C 147.851562 571.3125 147.164062 571.085938 146.226562 571.085938 C 145.277344 571.085938 144.589844 571.25 144.164062 571.570312 C 143.734375 571.894531 143.476562 572.40625 143.382812 573.101562 L 141.179688 572.898438 C 141.542969 570.617188 143.242188 569.476562 146.273438 569.476562 C 147.867188 569.476562 149.0625 569.847656 149.867188 570.585938 C 150.667969 571.316406 151.070312 572.367188 151.070312 573.742188 L 151.070312 579.210938 C 151.070312 579.835938 151.152344 580.3125 151.320312 580.632812 C 151.484375 580.945312 151.796875 581.101562 152.257812 581.101562 C 152.464844 581.101562 152.695312 581.070312 152.945312 581.007812 L 152.945312 582.320312 C 152.414062 582.453125 151.871094 582.523438 151.320312 582.523438 C 150.539062 582.523438 149.96875 582.320312 149.617188 581.914062 C 149.261719 581.5 149.058594 580.851562 149.007812 579.976562 L 148.945312 579.976562 C 148.402344 580.945312 147.773438 581.632812 147.054688 582.039062 C 146.34375 582.433594 145.480469 582.632812 144.460938 582.632812 Z M 144.929688 581.054688 C 145.710938 581.054688 146.398438 580.878906 146.992188 580.523438 C 147.59375 580.171875 148.070312 579.6875 148.414062 579.070312 C 148.765625 578.457031 148.945312 577.828125 148.945312 577.179688 L 148.945312 576.132812 L 146.632812 576.179688 C 145.640625 576.203125 144.890625 576.304688 144.382812 576.492188 C 143.871094 576.679688 143.476562 576.972656 143.195312 577.367188 C 142.921875 577.753906 142.789062 578.265625 142.789062 578.898438 C 142.789062 579.585938 142.96875 580.117188 143.335938 580.492188 C 143.710938 580.867188 144.242188 581.054688 144.929688 581.054688 Z M 160.789062 582.398438 L 158.289062 582.398438 L 153.679688 569.710938 L 155.929688 569.710938 L 158.726562 577.960938 C 158.828125 578.273438 159.101562 579.203125 159.539062 580.742188 L 159.945312 579.367188 L 160.398438 577.992188 L 163.289062 569.710938 L 165.523438 569.710938 Z M 167.210938 582.398438 L 167.210938 569.710938 L 169.320312 569.710938 L 169.320312 582.398438 Z M 167.210938 567.023438 L 167.210938 565.007812 L 169.320312 565.007812 L 169.320312 567.023438 Z M 181.226562 580.351562 C 180.828125 581.164062 180.308594 581.75 179.664062 582.101562 C 179.027344 582.453125 178.230469 582.632812 177.273438 582.632812 C 175.667969 582.632812 174.492188 582.097656 173.742188 581.023438 C 172.992188 579.941406 172.617188 578.304688 172.617188 576.117188 C 172.617188 571.691406 174.167969 569.476562 177.273438 569.476562 C 178.230469 569.476562 179.027344 569.65625 179.664062 570.007812 C 180.308594 570.363281 180.828125 570.921875 181.226562 571.679688 L 181.242188 571.679688 L 181.226562 570.273438 L 181.226562 565.007812 L 183.335938 565.007812 L 183.335938 579.789062 C 183.335938 581.101562 183.355469 581.972656 183.398438 582.398438 L 181.382812 582.398438 C 181.359375 582.273438 181.335938 581.988281 181.304688 581.539062 C 181.28125 581.082031 181.273438 580.6875 181.273438 580.351562 Z M 174.820312 576.039062 C 174.820312 577.820312 175.054688 579.097656 175.523438 579.867188 C 175.992188 580.628906 176.757812 581.007812 177.820312 581.007812 C 179.007812 581.007812 179.871094 580.597656 180.414062 579.773438 C 180.953125 578.941406 181.226562 577.648438 181.226562 575.898438 C 181.226562 574.222656 180.953125 572.992188 180.414062 572.210938 C 179.871094 571.429688 179.011719 571.039062 177.835938 571.039062 C 176.773438 571.039062 176 571.4375 175.523438 572.226562 C 175.054688 573.007812 174.820312 574.28125 174.820312 576.039062 Z M 197.898438 576.992188 C 197.898438 578.734375 197.421875 580.109375 196.476562 581.117188 C 195.527344 582.128906 194.226562 582.632812 192.570312 582.632812 C 190.703125 582.632812 189.277344 581.941406 188.289062 580.554688 C 187.308594 579.171875 186.820312 577.160156 186.820312 574.523438 C 186.820312 571.660156 187.328125 569.460938 188.351562 567.929688 C 189.382812 566.398438 190.839844 565.632812 192.726562 565.632812 C 195.214844 565.632812 196.789062 566.757812 197.445312 569.007812 L 195.429688 569.367188 C 195.011719 568.023438 194.105469 567.351562 192.710938 567.351562 C 191.5 567.351562 190.5625 567.914062 189.898438 569.039062 C 189.242188 570.15625 188.914062 571.773438 188.914062 573.898438 C 189.296875 573.191406 189.839844 572.65625 190.539062 572.289062 C 191.234375 571.914062 192.03125 571.726562 192.929688 571.726562 C 194.449219 571.726562 195.65625 572.207031 196.554688 573.164062 C 197.449219 574.113281 197.898438 575.390625 197.898438 576.992188 Z M 195.757812 577.085938 C 195.757812 575.890625 195.460938 574.96875 194.867188 574.320312 C 194.28125 573.675781 193.46875 573.351562 192.429688 573.351562 C 191.4375 573.351562 190.640625 573.640625 190.039062 574.210938 C 189.433594 574.785156 189.132812 575.578125 189.132812 576.585938 C 189.132812 577.859375 189.445312 578.898438 190.070312 579.710938 C 190.703125 580.523438 191.511719 580.929688 192.492188 580.929688 C 193.511719 580.929688 194.308594 580.59375 194.882812 579.914062 C 195.464844 579.226562 195.757812 578.285156 195.757812 577.085938 Z M 211.898438 576.992188 C 211.898438 578.734375 211.421875 580.109375 210.476562 581.117188 C 209.527344 582.128906 208.226562 582.632812 206.570312 582.632812 C 204.703125 582.632812 203.277344 581.941406 202.289062 580.554688 C 201.308594 579.171875 200.820312 577.160156 200.820312 574.523438 C 200.820312 571.660156 201.328125 569.460938 202.351562 567.929688 C 203.382812 566.398438 204.839844 565.632812 206.726562 565.632812 C 209.214844 565.632812 210.789062 566.757812 211.445312 569.007812 L 209.429688 569.367188 C 209.011719 568.023438 208.105469 567.351562 206.710938 567.351562 C 205.5 567.351562 204.5625 567.914062 203.898438 569.039062 C 203.242188 570.15625 202.914062 571.773438 202.914062 573.898438 C 203.296875 573.191406 203.839844 572.65625 204.539062 572.289062 C 205.234375 571.914062 206.03125 571.726562 206.929688 571.726562 C 208.449219 571.726562 209.65625 572.207031 210.554688 573.164062 C 211.449219 574.113281 211.898438 575.390625 211.898438 576.992188 Z M 209.757812 577.085938 C 209.757812 575.890625 209.460938 574.96875 208.867188 574.320312 C 208.28125 573.675781 207.46875 573.351562 206.429688 573.351562 C 205.4375 573.351562 204.640625 573.640625 204.039062 574.210938 C 203.433594 574.785156 203.132812 575.578125 203.132812 576.585938 C 203.132812 577.859375 203.445312 578.898438 204.070312 579.710938 C 204.703125 580.523438 205.511719 580.929688 206.492188 580.929688 C 207.511719 580.929688 208.308594 580.59375 208.882812 579.914062 C 209.464844 579.226562 209.757812 578.285156 209.757812 577.085938 Z M 225.898438 576.992188 C 225.898438 578.734375 225.421875 580.109375 224.476562 581.117188 C 223.527344 582.128906 222.226562 582.632812 220.570312 582.632812 C 218.703125 582.632812 217.277344 581.941406 216.289062 580.554688 C 215.308594 579.171875 214.820312 577.160156 214.820312 574.523438 C 214.820312 571.660156 215.328125 569.460938 216.351562 567.929688 C 217.382812 566.398438 218.839844 565.632812 220.726562 565.632812 C 223.214844 565.632812 224.789062 566.757812 225.445312 569.007812 L 223.429688 569.367188 C 223.011719 568.023438 222.105469 567.351562 220.710938 567.351562 C 219.5 567.351562 218.5625 567.914062 217.898438 569.039062 C 217.242188 570.15625 216.914062 571.773438 216.914062 573.898438 C 217.296875 573.191406 217.839844 572.65625 218.539062 572.289062 C 219.234375 571.914062 220.03125 571.726562 220.929688 571.726562 C 222.449219 571.726562 223.65625 572.207031 224.554688 573.164062 C 225.449219 574.113281 225.898438 575.390625 225.898438 576.992188 Z M 223.757812 577.085938 C 223.757812 575.890625 223.460938 574.96875 222.867188 574.320312 C 222.28125 573.675781 221.46875 573.351562 220.429688 573.351562 C 219.4375 573.351562 218.640625 573.640625 218.039062 574.210938 C 217.433594 574.785156 217.132812 575.578125 217.132812 576.585938 C 217.132812 577.859375 217.445312 578.898438 218.070312 579.710938 C 218.703125 580.523438 219.511719 580.929688 220.492188 580.929688 C 221.511719 580.929688 222.308594 580.59375 222.882812 579.914062 C 223.464844 579.226562 223.757812 578.285156 223.757812 577.085938 Z M 239.898438 576.992188 C 239.898438 578.734375 239.421875 580.109375 238.476562 581.117188 C 237.527344 582.128906 236.226562 582.632812 234.570312 582.632812 C 232.703125 582.632812 231.277344 581.941406 230.289062 580.554688 C 229.308594 579.171875 228.820312 577.160156 228.820312 574.523438 C 228.820312 571.660156 229.328125 569.460938 230.351562 567.929688 C 231.382812 566.398438 232.839844 565.632812 234.726562 565.632812 C 237.214844 565.632812 238.789062 566.757812 239.445312 569.007812 L 237.429688 569.367188 C 237.011719 568.023438 236.105469 567.351562 234.710938 567.351562 C 233.5 567.351562 232.5625 567.914062 231.898438 569.039062 C 231.242188 570.15625 230.914062 571.773438 230.914062 573.898438 C 231.296875 573.191406 231.839844 572.65625 232.539062 572.289062 C 233.234375 571.914062 234.03125 571.726562 234.929688 571.726562 C 236.449219 571.726562 237.65625 572.207031 238.554688 573.164062 C 239.449219 574.113281 239.898438 575.390625 239.898438 576.992188 Z M 237.757812 577.085938 C 237.757812 575.890625 237.460938 574.96875 236.867188 574.320312 C 236.28125 573.675781 235.46875 573.351562 234.429688 573.351562 C 233.4375 573.351562 232.640625 573.640625 232.039062 574.210938 C 231.433594 574.785156 231.132812 575.578125 231.132812 576.585938 C 231.132812 577.859375 231.445312 578.898438 232.070312 579.710938 C 232.703125 580.523438 233.511719 580.929688 234.492188 580.929688 C 235.511719 580.929688 236.308594 580.59375 236.882812 579.914062 C 237.464844 579.226562 237.757812 578.285156 237.757812 577.085938 Z M 253.898438 576.992188 C 253.898438 578.734375 253.421875 580.109375 252.476562 581.117188 C 251.527344 582.128906 250.226562 582.632812 248.570312 582.632812 C 246.703125 582.632812 245.277344 581.941406 244.289062 580.554688 C 243.308594 579.171875 242.820312 577.160156 242.820312 574.523438 C 242.820312 571.660156 243.328125 569.460938 244.351562 567.929688 C 245.382812 566.398438 246.839844 565.632812 248.726562 565.632812 C 251.214844 565.632812 252.789062 566.757812 253.445312 569.007812 L 251.429688 569.367188 C 251.011719 568.023438 250.105469 567.351562 248.710938 567.351562 C 247.5 567.351562 246.5625 567.914062 245.898438 569.039062 C 245.242188 570.15625 244.914062 571.773438 244.914062 573.898438 C 245.296875 573.191406 245.839844 572.65625 246.539062 572.289062 C 247.234375 571.914062 248.03125 571.726562 248.929688 571.726562 C 250.449219 571.726562 251.65625 572.207031 252.554688 573.164062 C 253.449219 574.113281 253.898438 575.390625 253.898438 576.992188 Z M 251.757812 577.085938 C 251.757812 575.890625 251.460938 574.96875 250.867188 574.320312 C 250.28125 573.675781 249.46875 573.351562 248.429688 573.351562 C 247.4375 573.351562 246.640625 573.640625 246.039062 574.210938 C 245.433594 574.785156 245.132812 575.578125 245.132812 576.585938 C 245.132812 577.859375 245.445312 578.898438 246.070312 579.710938 C 246.703125 580.523438 247.511719 580.929688 248.492188 580.929688 C 249.511719 580.929688 250.308594 580.59375 250.882812 579.914062 C 251.464844 579.226562 251.757812 578.285156 251.757812 577.085938 Z M 267.898438 576.992188 C 267.898438 578.734375 267.421875 580.109375 266.476562 581.117188 C 265.527344 582.128906 264.226562 582.632812 262.570312 582.632812 C 260.703125 582.632812 259.277344 581.941406 258.289062 580.554688 C 257.308594 579.171875 256.820312 577.160156 256.820312 574.523438 C 256.820312 571.660156 257.328125 569.460938 258.351562 567.929688 C 259.382812 566.398438 260.839844 565.632812 262.726562 565.632812 C 265.214844 565.632812 266.789062 566.757812 267.445312 569.007812 L 265.429688 569.367188 C 265.011719 568.023438 264.105469 567.351562 262.710938 567.351562 C 261.5 567.351562 260.5625 567.914062 259.898438 569.039062 C 259.242188 570.15625 258.914062 571.773438 258.914062 573.898438 C 259.296875 573.191406 259.839844 572.65625 260.539062 572.289062 C 261.234375 571.914062 262.03125 571.726562 262.929688 571.726562 C 264.449219 571.726562 265.65625 572.207031 266.554688 573.164062 C 267.449219 574.113281 267.898438 575.390625 267.898438 576.992188 Z M 265.757812 577.085938 C 265.757812 575.890625 265.460938 574.96875 264.867188 574.320312 C 264.28125 573.675781 263.46875 573.351562 262.429688 573.351562 C 261.4375 573.351562 260.640625 573.640625 260.039062 574.210938 C 259.433594 574.785156 259.132812 575.578125 259.132812 576.585938 C 259.132812 577.859375 259.445312 578.898438 260.070312 579.710938 C 260.703125 580.523438 261.511719 580.929688 262.492188 580.929688 C 263.511719 580.929688 264.308594 580.59375 264.882812 579.914062 C 265.464844 579.226562 265.757812 578.285156 265.757812 577.085938 Z M 281.898438 576.992188 C 281.898438 578.734375 281.421875 580.109375 280.476562 581.117188 C 279.527344 582.128906 278.226562 582.632812 276.570312 582.632812 C 274.703125 582.632812 273.277344 581.941406 272.289062 580.554688 C 271.308594 579.171875 270.820312 577.160156 270.820312 574.523438 C 270.820312 571.660156 271.328125 569.460938 272.351562 567.929688 C 273.382812 566.398438 274.839844 565.632812 276.726562 565.632812 C 279.214844 565.632812 280.789062 566.757812 281.445312 569.007812 L 279.429688 569.367188 C 279.011719 568.023438 278.105469 567.351562 276.710938 567.351562 C 275.5 567.351562 274.5625 567.914062 273.898438 569.039062 C 273.242188 570.15625 272.914062 571.773438 272.914062 573.898438 C 273.296875 573.191406 273.839844 572.65625 274.539062 572.289062 C 275.234375 571.914062 276.03125 571.726562 276.929688 571.726562 C 278.449219 571.726562 279.65625 572.207031 280.554688 573.164062 C 281.449219 574.113281 281.898438 575.390625 281.898438 576.992188 Z M 279.757812 577.085938 C 279.757812 575.890625 279.460938 574.96875 278.867188 574.320312 C 278.28125 573.675781 277.46875 573.351562 276.429688 573.351562 C 275.4375 573.351562 274.640625 573.640625 274.039062 574.210938 C 273.433594 574.785156 273.132812 575.578125 273.132812 576.585938 C 273.132812 577.859375 273.445312 578.898438 274.070312 579.710938 C 274.703125 580.523438 275.511719 580.929688 276.492188 580.929688 C 277.511719 580.929688 278.308594 580.59375 278.882812 579.914062 C 279.464844 579.226562 279.757812 578.285156 279.757812 577.085938 Z M 125.601562 560.671875 "/>
<path style=" stroke:none;fill-rule:nonzero;fill:rgb(40%,40%,40%);fill-opacity:1;" d="M 477.996094 571.257812 L 477.996094 582.398438 L 475.886719 582.398438 L 475.886719 571.257812 L 474.105469 571.257812 L 474.105469 569.710938 L 475.886719 569.710938 L 475.886719 568.289062 C 475.886719 567.132812 476.136719 566.300781 476.636719 565.789062 C 477.144531 565.28125 477.925781 565.023438 478.980469 565.023438 C 479.5625 565.023438 480.058594 565.070312 480.464844 565.164062 L 480.464844 566.773438 C 480.109375 566.710938 479.796875 566.679688 479.527344 566.679688 C 478.984375 566.679688 478.59375 566.820312 478.355469 567.101562 C 478.113281 567.375 477.996094 567.867188 477.996094 568.585938 L 477.996094 569.710938 L 480.464844 569.710938 L 480.464844 571.257812 Z M 484.621094 582.632812 C 483.339844 582.632812 482.375 582.300781 481.730469 581.632812 C 481.09375 580.957031 480.777344 580.03125 480.777344 578.851562 C 480.777344 577.539062 481.207031 576.535156 482.074219 575.835938 C 482.9375 575.128906 484.332031 574.753906 486.261719 574.710938 L 489.105469 574.664062 L 489.105469 573.976562 C 489.105469 572.945312 488.886719 572.207031 488.449219 571.757812 C 488.011719 571.3125 487.324219 571.085938 486.386719 571.085938 C 485.4375 571.085938 484.75 571.25 484.324219 571.570312 C 483.894531 571.894531 483.636719 572.40625 483.542969 573.101562 L 481.339844 572.898438 C 481.703125 570.617188 483.402344 569.476562 486.433594 569.476562 C 488.027344 569.476562 489.222656 569.847656 490.027344 570.585938 C 490.828125 571.316406 491.230469 572.367188 491.230469 573.742188 L 491.230469 579.210938 C 491.230469 579.835938 491.3125 580.3125 491.480469 580.632812 C 491.644531 580.945312 491.957031 581.101562 492.417969 581.101562 C 492.625 581.101562 492.855469 581.070312 493.105469 581.007812 L 493.105469 582.320312 C 492.574219 582.453125 492.03125 582.523438 491.480469 582.523438 C 490.699219 582.523438 490.128906 582.320312 489.777344 581.914062 C 489.421875 581.5 489.21875 580.851562 489.167969 579.976562 L 489.105469 579.976562 C 488.5625 580.945312 487.933594 581.632812 487.214844 582.039062 C 486.503906 582.433594 485.640625 582.632812 484.621094 582.632812 Z M 485.089844 581.054688 C 485.871094 581.054688 486.558594 580.878906 487.152344 580.523438 C 487.753906 580.171875 488.230469 579.6875 488.574219 579.070312 C 488.925781 578.457031 489.105469 577.828125 489.105469 577.179688 L 489.105469 576.132812 L 486.792969 576.179688 C 485.800781 576.203125 485.050781 576.304688 484.542969 576.492188 C 484.03125 576.679688 483.636719 576.972656 483.355469 577.367188 C 483.082031 577.753906 482.949219 578.265625 482.949219 578.898438 C 482.949219 579.585938 483.128906 580.117188 483.496094 580.492188 C 483.871094 580.867188 484.402344 581.054688 485.089844 581.054688 Z M 503.324219 582.398438 L 499.042969 576.601562 L 497.496094 577.882812 L 497.496094 582.398438 L 495.386719 582.398438 L 495.386719 565.007812 L 497.496094 565.007812 L 497.496094 575.867188 L 503.058594 569.710938 L 505.527344 569.710938 L 500.386719 575.164062 L 505.792969 582.398438 Z M 508.996094 576.507812 C 508.996094 577.957031 509.296875 579.078125 509.902344 579.867188 C 510.503906 580.660156 511.386719 581.054688 512.542969 581.054688 C 513.449219 581.054688 514.175781 580.875 514.730469 580.507812 C 515.28125 580.132812 515.65625 579.664062 515.855469 579.101562 L 517.699219 579.632812 C 516.949219 581.632812 515.230469 582.632812 512.542969 582.632812 C 510.667969 582.632812 509.234375 582.078125 508.246094 580.960938 C 507.265625 579.835938 506.777344 578.175781 506.777344 575.976562 C 506.777344 573.882812 507.265625 572.28125 508.246094 571.164062 C 509.234375 570.039062 510.636719 569.476562 512.449219 569.476562 C 516.175781 569.476562 518.042969 571.726562 518.042969 576.226562 L 518.042969 576.507812 Z M 515.871094 574.882812 C 515.746094 573.550781 515.402344 572.578125 514.839844 571.960938 C 514.277344 571.347656 513.46875 571.039062 512.417969 571.039062 C 511.394531 571.039062 510.582031 571.382812 509.980469 572.070312 C 509.386719 572.75 509.066406 573.6875 509.027344 574.882812 Z M 532.167969 574.132812 C 532.167969 576.894531 531.683594 579.003906 530.714844 580.460938 C 529.746094 581.910156 528.308594 582.632812 526.402344 582.632812 C 524.503906 582.632812 523.078125 581.910156 522.121094 580.460938 C 521.171875 579.015625 520.699219 576.90625 520.699219 574.132812 C 520.699219 571.300781 521.160156 569.175781 522.089844 567.757812 C 523.015625 566.34375 524.480469 565.632812 526.480469 565.632812 C 528.425781 565.632812 529.859375 566.351562 530.777344 567.789062 C 531.703125 569.21875 532.167969 571.332031 532.167969 574.132812 Z M 530.027344 574.132812 C 530.027344 571.75 529.75 570.023438 529.199219 568.960938 C 528.644531 567.890625 527.738281 567.351562 526.480469 567.351562 C 525.175781 567.351562 524.246094 567.878906 523.683594 568.929688 C 523.121094 569.984375 522.839844 571.71875 522.839844 574.132812 C 522.839844 576.476562 523.125 578.195312 523.699219 579.289062 C 524.269531 580.375 525.183594 580.914062 526.433594 580.914062 C 527.671875 580.914062 528.578125 580.363281 529.152344 579.257812 C 529.734375 578.144531 530.027344 576.4375 530.027344 574.132812 Z M 537.996094 571.257812 L 537.996094 582.398438 L 535.886719 582.398438 L 535.886719 571.257812 L 534.105469 571.257812 L 534.105469 569.710938 L 535.886719 569.710938 L 535.886719 568.289062 C 535.886719 567.132812 536.136719 566.300781 536.636719 565.789062 C 537.144531 565.28125 537.925781 565.023438 538.980469 565.023438 C 539.5625 565.023438 540.058594 565.070312 540.464844 565.164062 L 540.464844 566.773438 C 540.109375 566.710938 539.796875 566.679688 539.527344 566.679688 C 538.984375 566.679688 538.59375 566.820312 538.355469 567.101562 C 538.113281 567.375 537.996094 567.867188 537.996094 568.585938 L 537.996094 569.710938 L 540.464844 569.710938 L 540.464844 571.257812 Z M 544.621094 582.632812 C 543.339844 582.632812 542.375 582.300781 541.730469 581.632812 C 541.09375 580.957031 540.777344 580.03125 540.777344 578.851562 C 540.777344 577.539062 541.207031 576.535156 542.074219 575.835938 C 542.9375 575.128906 544.332031 574.753906 546.261719 574.710938 L 549.105469 574.664062 L 549.105469 573.976562 C 549.105469 572.945312 548.886719 572.207031 548.449219 571.757812 C 548.011719 571.3125 547.324219 571.085938 546.386719 571.085938 C 545.4375 571.085938 544.75 571.25 544.324219 571.570312 C 543.894531 571.894531 543.636719 572.40625 543.542969 573.101562 L 541.339844 572.898438 C 541.703125 570.617188 543.402344 569.476562 546.433594 569.476562 C 548.027344 569.476562 549.222656 569.847656 550.027344 570.585938 C 550.828125 571.316406 551.230469 572.367188 551.230469 573.742188 L 551.230469 579.210938 C 551.230469 579.835938 551.3125 580.3125 551.480469 580.632812 C 551.644531 580.945312 551.957031 581.101562 552.417969 581.101562 C 552.625 581.101562 552.855469 581.070312 553.105469 581.007812 L 553.105469 582.320312 C 552.574219 582.453125 552.03125 582.523438 551.480469 582.523438 C 550.699219 582.523438 550.128906 582.320312 549.777344 581.914062 C 549.421875 581.5 549.21875 580.851562 549.167969 579.976562 L 549.105469 579.976562 C 548.5625 580.945312 547.933594 581.632812 547.214844 582.039062 C 546.503906 582.433594 545.640625 582.632812 544.621094 582.632812 Z M 545.089844 581.054688 C 545.871094 581.054688 546.558594 580.878906 547.152344 580.523438 C 547.753906 580.171875 548.230469 579.6875 548.574219 579.070312 C 548.925781 578.457031 549.105469 577.828125 549.105469 577.179688 L 549.105469 576.132812 L 546.792969 576.179688 C 545.800781 576.203125 545.050781 576.304688 544.542969 576.492188 C 544.03125 576.679688 543.636719 576.972656 543.355469 577.367188 C 543.082031 577.753906 542.949219 578.265625 542.949219 578.898438 C 542.949219 579.585938 543.128906 580.117188 543.496094 580.492188 C 543.871094 580.867188 544.402344 581.054688 545.089844 581.054688 Z M 563.433594 582.398438 L 563.433594 574.351562 C 563.433594 573.519531 563.347656 572.875 563.183594 572.414062 C 563.015625 571.957031 562.75 571.628906 562.386719 571.429688 C 562.03125 571.222656 561.511719 571.117188 560.824219 571.117188 C 559.800781 571.117188 559 571.46875 558.417969 572.164062 C 557.832031 572.851562 557.542969 573.816406 557.542969 575.054688 L 557.542969 582.398438 L 555.433594 582.398438 L 555.433594 572.429688 C 555.433594 570.953125 555.40625 570.046875 555.355469 569.710938 L 557.355469 569.710938 C 557.355469 569.753906 557.359375 569.863281 557.371094 570.039062 C 557.378906 570.207031 557.390625 570.40625 557.402344 570.632812 C 557.410156 570.851562 557.425781 571.269531 557.449219 571.882812 L 557.480469 571.882812 C 557.957031 571.007812 558.515625 570.390625 559.152344 570.023438 C 559.796875 569.660156 560.589844 569.476562 561.527344 569.476562 C 562.921875 569.476562 563.941406 569.828125 564.589844 570.523438 C 565.234375 571.210938 565.558594 572.351562 565.558594 573.945312 L 565.558594 582.398438 Z M 473.761719 560.671875 "/>
<path style=" stroke:none;fill-rule:nonzero;fill:rgb(40%,40%,40%);fill-opacity:1;" d="M 763.640625 571.882812 C 764.085938 571.0625 764.628906 570.457031 765.265625 570.070312 C 765.910156 569.675781 766.71875 569.476562 767.6875 569.476562 C 769.0625 569.476562 770.078125 569.820312 770.734375 570.507812 C 771.390625 571.195312 771.71875 572.34375 771.71875 573.945312 L 771.71875 582.398438 L 769.59375 582.398438 L 769.59375 574.351562 C 769.59375 573.46875 769.507812 572.8125 769.34375 572.382812 C 769.175781 571.945312 768.90625 571.628906 768.53125 571.429688 C 768.15625 571.222656 767.640625 571.117188 766.984375 571.117188 C 765.984375 571.117188 765.1875 571.460938 764.59375 572.148438 C 764 572.835938 763.703125 573.757812 763.703125 574.914062 L 763.703125 582.398438 L 761.59375 582.398438 L 761.59375 565.007812 L 763.703125 565.007812 L 763.703125 569.523438 C 763.703125 570.003906 763.6875 570.5 763.65625 571.007812 C 763.625 571.519531 763.609375 571.8125 763.609375 571.882812 Z M 785.0625 578.898438 C 785.0625 580.085938 784.609375 581.007812 783.703125 581.664062 C 782.796875 582.3125 781.53125 582.632812 779.90625 582.632812 C 778.332031 582.632812 777.117188 582.375 776.265625 581.851562 C 775.410156 581.332031 774.851562 580.519531 774.59375 579.414062 L 776.453125 579.054688 C 776.628906 579.734375 777 580.234375 777.5625 580.554688 C 778.125 580.867188 778.90625 581.023438 779.90625 581.023438 C 780.976562 581.023438 781.757812 580.863281 782.25 580.539062 C 782.75 580.207031 783 579.710938 783 579.054688 C 783 578.554688 782.828125 578.148438 782.484375 577.835938 C 782.140625 577.523438 781.585938 577.269531 780.828125 577.070312 L 779.3125 576.664062 C 778.101562 576.351562 777.242188 576.046875 776.734375 575.742188 C 776.222656 575.441406 775.820312 575.078125 775.53125 574.648438 C 775.238281 574.222656 775.09375 573.695312 775.09375 573.070312 C 775.09375 571.914062 775.503906 571.035156 776.328125 570.429688 C 777.148438 569.828125 778.351562 569.523438 779.9375 569.523438 C 781.332031 569.523438 782.441406 569.769531 783.265625 570.257812 C 784.085938 570.75 784.609375 571.535156 784.828125 572.617188 L 782.9375 572.851562 C 782.820312 572.289062 782.503906 571.863281 781.984375 571.570312 C 781.472656 571.269531 780.789062 571.117188 779.9375 571.117188 C 778.976562 571.117188 778.269531 571.265625 777.8125 571.554688 C 777.363281 571.835938 777.140625 572.269531 777.140625 572.851562 C 777.140625 573.21875 777.234375 573.519531 777.421875 573.757812 C 777.609375 573.988281 777.882812 574.1875 778.25 574.351562 C 778.625 574.507812 779.398438 574.734375 780.578125 575.023438 C 781.691406 575.304688 782.492188 575.566406 782.984375 575.804688 C 783.484375 576.046875 783.875 576.3125 784.15625 576.601562 C 784.445312 576.882812 784.671875 577.21875 784.828125 577.601562 C 784.984375 577.976562 785.0625 578.410156 785.0625 578.898438 Z M 787.546875 582.398438 L 787.546875 565.007812 L 789.65625 565.007812 L 789.65625 582.398438 Z M 793.53125 582.398438 L 793.53125 569.710938 L 795.640625 569.710938 L 795.640625 582.398438 Z M 793.53125 567.023438 L 793.53125 565.007812 L 795.640625 565.007812 L 795.640625 567.023438 Z M 801.609375 569.710938 L 801.609375 577.757812 C 801.609375 578.59375 801.6875 579.242188 801.84375 579.710938 C 802.007812 580.171875 802.269531 580.503906 802.625 580.710938 C 802.988281 580.910156 803.519531 581.007812 804.21875 581.007812 C 805.226562 581.007812 806.023438 580.660156 806.609375 579.960938 C 807.203125 579.265625 807.5 578.300781 807.5 577.070312 L 807.5 569.710938 L 809.609375 569.710938 L 809.609375 579.695312 C 809.609375 581.164062 809.628906 582.066406 809.671875 582.398438 L 807.6875 582.398438 C 807.675781 582.359375 807.664062 582.253906 807.65625 582.085938 C 807.65625 581.910156 807.644531 581.710938 807.625 581.492188 C 807.613281 581.265625 807.601562 580.84375 807.59375 580.226562 L 807.5625 580.226562 C 807.070312 581.101562 806.507812 581.722656 805.875 582.085938 C 805.238281 582.449219 804.445312 582.632812 803.5 582.632812 C 802.113281 582.632812 801.097656 582.289062 800.453125 581.601562 C 799.804688 580.90625 799.484375 579.757812 799.484375 578.164062 L 799.484375 569.710938 Z M 815.609375 569.710938 L 815.609375 577.757812 C 815.609375 578.59375 815.6875 579.242188 815.84375 579.710938 C 816.007812 580.171875 816.269531 580.503906 816.625 580.710938 C 816.988281 580.910156 817.519531 581.007812 818.21875 581.007812 C 819.226562 581.007812 820.023438 580.660156 820.609375 579.960938 C 821.203125 579.265625 821.5 578.300781 821.5 577.070312 L 821.5 569.710938 L 823.609375 569.710938 L 823.609375 579.695312 C 823.609375 581.164062 823.628906 582.066406 823.671875 582.398438 L 821.6875 582.398438 C 821.675781 582.359375 821.664062 582.253906 821.65625 582.085938 C 821.65625 581.910156 821.644531 581.710938 821.625 581.492188 C 821.613281 581.265625 821.601562 580.84375 821.59375 580.226562 L 821.5625 580.226562 C 821.070312 581.101562 820.507812 581.722656 819.875 582.085938 C 819.238281 582.449219 818.445312 582.632812 817.5 582.632812 C 816.113281 582.632812 815.097656 582.289062 814.453125 581.601562 C 813.804688 580.90625 813.484375 579.757812 813.484375 578.164062 L 813.484375 569.710938 Z M 837.0625 578.898438 C 837.0625 580.085938 836.609375 581.007812 835.703125 581.664062 C 834.796875 582.3125 833.53125 582.632812 831.90625 582.632812 C 830.332031 582.632812 829.117188 582.375 828.265625 581.851562 C 827.410156 581.332031 826.851562 580.519531 826.59375 579.414062 L 828.453125 579.054688 C 828.628906 579.734375 829 580.234375 829.5625 580.554688 C 830.125 580.867188 830.90625 581.023438 831.90625 581.023438 C 832.976562 581.023438 833.757812 580.863281 834.25 580.539062 C 834.75 580.207031 835 579.710938 835 579.054688 C 835 578.554688 834.828125 578.148438 834.484375 577.835938 C 834.140625 577.523438 833.585938 577.269531 832.828125 577.070312 L 831.3125 576.664062 C 830.101562 576.351562 829.242188 576.046875 828.734375 575.742188 C 828.222656 575.441406 827.820312 575.078125 827.53125 574.648438 C 827.238281 574.222656 827.09375 573.695312 827.09375 573.070312 C 827.09375 571.914062 827.503906 571.035156 828.328125 570.429688 C 829.148438 569.828125 830.351562 569.523438 831.9375 569.523438 C 833.332031 569.523438 834.441406 569.769531 835.265625 570.257812 C 836.085938 570.75 836.609375 571.535156 836.828125 572.617188 L 834.9375 572.851562 C 834.820312 572.289062 834.503906 571.863281 833.984375 571.570312 C 833.472656 571.269531 832.789062 571.117188 831.9375 571.117188 C 830.976562 571.117188 830.269531 571.265625 829.8125 571.554688 C 829.363281 571.835938 829.140625 572.269531 829.140625 572.851562 C 829.140625 573.21875 829.234375 573.519531 829.421875 573.757812 C 829.609375 573.988281 829.882812 574.1875 830.25 574.351562 C 830.625 574.507812 831.398438 574.734375 832.578125 575.023438 C 833.691406 575.304688 834.492188 575.566406 834.984375 575.804688 C 835.484375 576.046875 835.875 576.3125 836.15625 576.601562 C 836.445312 576.882812 836.671875 577.21875 836.828125 577.601562 C 836.984375 577.976562 837.0625 578.410156 837.0625 578.898438 Z M 844.421875 582.304688 C 843.722656 582.492188 843.007812 582.585938 842.28125 582.585938 C 840.59375 582.585938 839.75 581.628906 839.75 579.710938 L 839.75 571.257812 L 838.28125 571.257812 L 838.28125 569.710938 L 839.828125 569.710938 L 840.453125 566.882812 L 841.859375 566.882812 L 841.859375 569.710938 L 844.203125 569.710938 L 844.203125 571.257812 L 841.859375 571.257812 L 841.859375 579.257812 C 841.859375 579.863281 841.957031 580.289062 842.15625 580.539062 C 842.351562 580.789062 842.703125 580.914062 843.203125 580.914062 C 843.484375 580.914062 843.890625 580.859375 844.421875 580.742188 Z M 847.140625 575.992188 C 847.140625 577.679688 847.40625 578.929688 847.9375 579.742188 C 848.46875 580.554688 849.269531 580.960938 850.34375 580.960938 C 851.09375 580.960938 851.71875 580.757812 852.21875 580.351562 C 852.726562 579.945312 853.039062 579.320312 853.15625 578.476562 L 855.296875 578.617188 C 855.128906 579.835938 854.609375 580.8125 853.734375 581.539062 C 852.859375 582.269531 851.75 582.632812 850.40625 582.632812 C 848.632812 582.632812 847.28125 582.078125 846.34375 580.960938 C 845.40625 579.835938 844.9375 578.195312 844.9375 576.039062 C 844.9375 573.914062 845.40625 572.289062 846.34375 571.164062 C 847.28125 570.039062 848.625 569.476562 850.375 569.476562 C 851.675781 569.476562 852.753906 569.816406 853.609375 570.492188 C 854.460938 571.160156 855 572.085938 855.21875 573.273438 L 853.046875 573.429688 C 852.941406 572.734375 852.664062 572.175781 852.21875 571.757812 C 851.769531 571.34375 851.140625 571.132812 850.328125 571.132812 C 849.203125 571.132812 848.390625 571.507812 847.890625 572.257812 C 847.390625 573 847.140625 574.242188 847.140625 575.992188 Z M 868.328125 574.132812 C 868.328125 576.894531 867.84375 579.003906 866.875 580.460938 C 865.90625 581.910156 864.46875 582.632812 862.5625 582.632812 C 860.664062 582.632812 859.238281 581.910156 858.28125 580.460938 C 857.332031 579.015625 856.859375 576.90625 856.859375 574.132812 C 856.859375 571.300781 857.320312 569.175781 858.25 567.757812 C 859.175781 566.34375 860.640625 565.632812 862.640625 565.632812 C 864.585938 565.632812 866.019531 566.351562 866.9375 567.789062 C 867.863281 569.21875 868.328125 571.332031 868.328125 574.132812 Z M 866.1875 574.132812 C 866.1875 571.75 865.910156 570.023438 865.359375 568.960938 C 864.804688 567.890625 863.898438 567.351562 862.640625 567.351562 C 861.335938 567.351562 860.40625 567.878906 859.84375 568.929688 C 859.28125 569.984375 859 571.71875 859 574.132812 C 859 576.476562 859.285156 578.195312 859.859375 579.289062 C 860.429688 580.375 861.34375 580.914062 862.59375 580.914062 C 863.832031 580.914062 864.738281 580.363281 865.3125 579.257812 C 865.894531 578.144531 866.1875 576.4375 866.1875 574.132812 Z M 871.75 582.398438 L 871.75 580.601562 L 875.953125 580.601562 L 875.953125 567.898438 L 872.234375 570.554688 L 872.234375 568.570312 L 876.140625 565.882812 L 878.078125 565.882812 L 878.078125 580.601562 L 882.09375 580.601562 L 882.09375 582.398438 Z M 896.328125 574.132812 C 896.328125 576.894531 895.84375 579.003906 894.875 580.460938 C 893.90625 581.910156 892.46875 582.632812 890.5625 582.632812 C 888.664062 582.632812 887.238281 581.910156 886.28125 580.460938 C 885.332031 579.015625 884.859375 576.90625 884.859375 574.132812 C 884.859375 571.300781 885.320312 569.175781 886.25 567.757812 C 887.175781 566.34375 888.640625 565.632812 890.640625 565.632812 C 892.585938 565.632812 894.019531 566.351562 894.9375 567.789062 C 895.863281 569.21875 896.328125 571.332031 896.328125 574.132812 Z M 894.1875 574.132812 C 894.1875 571.75 893.910156 570.023438 893.359375 568.960938 C 892.804688 567.890625 891.898438 567.351562 890.640625 567.351562 C 889.335938 567.351562 888.40625 567.878906 887.84375 568.929688 C 887.28125 569.984375 887 571.71875 887 574.132812 C 887 576.476562 887.285156 578.195312 887.859375 579.289062 C 888.429688 580.375 889.34375 580.914062 890.59375 580.914062 C 891.832031 580.914062 892.738281 580.363281 893.3125 579.257812 C 893.894531 578.144531 894.1875 576.4375 894.1875 574.132812 Z M 910.21875 576.992188 C 910.21875 578.734375 909.742188 580.109375 908.796875 581.117188 C 907.847656 582.128906 906.546875 582.632812 904.890625 582.632812 C 903.023438 582.632812 901.597656 581.941406 900.609375 580.554688 C 899.628906 579.171875 899.140625 577.160156 899.140625 574.523438 C 899.140625 571.660156 899.648438 569.460938 900.671875 567.929688 C 901.703125 566.398438 903.160156 565.632812 905.046875 565.632812 C 907.535156 565.632812 909.109375 566.757812 909.765625 569.007812 L 907.75 569.367188 C 907.332031 568.023438 906.425781 567.351562 905.03125 567.351562 C 903.820312 567.351562 902.882812 567.914062 902.21875 569.039062 C 901.5625 570.15625 901.234375 571.773438 901.234375 573.898438 C 901.617188 573.191406 902.160156 572.65625 902.859375 572.289062 C 903.554688 571.914062 904.351562 571.726562 905.25 571.726562 C 906.769531 571.726562 907.976562 572.207031 908.875 573.164062 C 909.769531 574.113281 910.21875 575.390625 910.21875 576.992188 Z M 908.078125 577.085938 C 908.078125 575.890625 907.78125 574.96875 907.1875 574.320312 C 906.601562 573.675781 905.789062 573.351562 904.75 573.351562 C 903.757812 573.351562 902.960938 573.640625 902.359375 574.210938 C 901.753906 574.785156 901.453125 575.578125 901.453125 576.585938 C 901.453125 577.859375 901.765625 578.898438 902.390625 579.710938 C 903.023438 580.523438 903.832031 580.929688 904.8125 580.929688 C 905.832031 580.929688 906.628906 580.59375 907.203125 579.914062 C 907.785156 579.226562 908.078125 578.285156 908.078125 577.085938 Z M 759.921875 560.671875 "/>
<path style="fill:none;stroke-width:1;stroke-linecap:butt;stroke-linejoin:miter;stroke:rgb(0%,0%,0%);stroke-opacity:0.0980392;stroke-miterlimit:10;" d="M 12.759766 66.5 L 22.5 66.5 M 23.5 66.5 L 497 66.5 " transform="matrix(2,0,0,2,0,0)"/>
<path style="fill:none;stroke-width:1;stroke-linecap:butt;stroke-linejoin:miter;stroke:rgb(0%,0%,0%);stroke-opacity:0.0980392;stroke-miterlimit:10;" d="M 12.759766 89 L 22.5 89 M 23.5 89 L 497 89 " transform="matrix(2,0,0,2,0,0)"/>
<path style="fill:none;stroke-width:1;stroke-linecap:butt;stroke-linejoin:miter;stroke:rgb(0%,0%,0%);stroke-opacity:0.0980392;stroke-miterlimit:10;" d="M 12.759766 111.5 L 22.5 111.5 M 23.5 111.5 L 497 111.5 " transform="matrix(2,0,0,2,0,0)"/>
<path style="fill:none;stroke-width:1;stroke-linecap:butt;stroke-linejoin:miter;stroke:rgb(0%,0%,0%);stroke-opacity:0.0980392;stroke-miterlimit:10;" d="M 12.759766 134 L 22.5 134 M 23.5 134 L 497 134 " transform="matrix(2,0,0,2,0,0)"/>
<path style="fill:none;stroke-width:1;stroke-linecap:butt;stroke-linejoin:miter;stroke:rgb(0%,0%,0%);stroke-opacity:0.0980392;stroke-miterlimit:10;" d="M 12.759766 157 L 22.5 157 M 23.5 157 L 497 157 " transform="matrix(2,0,0,2,0,0)"/>
<path style="fill:none;stroke-width:1;stroke-linecap:butt;stroke-linejoin:miter;stroke:rgb(0%,0%,0%);stroke-opacity:0.0980392;stroke-miterlimit:10;" d="M 12.759766 179.5 L 22.5 179.5 M 23.5 179.5 L 497 179.5 " transform="matrix(2,0,0,2,0,0)"/>
<path style="fill:none;stroke-width:1;stroke-linecap:butt;stroke-linejoin:miter;stroke:rgb(0%,0%,0%);stroke-opacity:0.0980392;stroke-miterlimit:10;" d="M 12.759766 202 L 22.5 202 M 23.5 202 L 497 202 " transform="matrix(2,0,0,2,0,0)"/>
<path style="fill:none;stroke-width:1;stroke-linecap:butt;stroke-linejoin:miter;stroke:rgb(0%,0%,0%);stroke-opacity:0.0980392;stroke-miterlimit:10;" d="M 12.759766 224.5 L 22.5 224.5 M 23.5 224.5 L 497 224.5 " transform="matrix(2,0,0,2,0,0)"/>
<path style="fill:none;stroke-width:1;stroke-linecap:butt;stroke-linejoin:miter;stroke:rgb(0%,0%,0%);stroke-opacity:0.0980392;stroke-miterlimit:10;" d="M 12.759766 247 L 22.5 247 M 23.5 247 L 497 247 " transform="matrix(2,0,0,2,0,0)"/>
<path style="fill:none;stroke-width:1;stroke-linecap:butt;stroke-linejoin:miter;stroke:rgb(0%,0%,0%);stroke-opacity:0.247059;stroke-miterlimit:10;" d="M 12.759766 270 L 22.5 270 M 23.5 270 L 497 270 " transform="matrix(2,0,0,2,0,0)"/>
<path style="fill:none;stroke-width:1;stroke-linecap:butt;stroke-linejoin:miter;stroke:rgb(0%,0%,0%);stroke-opacity:0.0980392;stroke-miterlimit:10;" d="M 23 66 L 23 270.5 " transform="matrix(2,0,0,2,0,0)"/>
<path style=" stroke:none;fill-rule:nonzero;fill:rgb(40%,40%,40%);fill-opacity:1;" d="M 23.738281 132.527344 C 23.738281 135.363281 23.214844 137.542969 22.175781 139.074219 C 21.144531 140.597656 19.667969 141.355469 17.753906 141.355469 C 16.460938 141.355469 15.425781 141.085938 14.644531 140.542969 C 13.871094 140.003906 13.320312 139.121094 12.988281 137.902344 L 15.003906 137.589844 C 15.417969 138.964844 16.347656 139.652344 17.785156 139.652344 C 19.003906 139.652344 19.941406 139.089844 20.597656 137.964844 C 21.261719 136.839844 21.613281 135.238281 21.644531 133.152344 C 21.332031 133.851562 20.792969 134.414062 20.035156 134.839844 C 19.285156 135.269531 18.457031 135.480469 17.550781 135.480469 C 16.058594 135.480469 14.867188 134.976562 13.972656 133.964844 C 13.085938 132.945312 12.644531 131.597656 12.644531 129.917969 C 12.644531 128.191406 13.128906 126.832031 14.097656 125.839844 C 15.066406 124.851562 16.414062 124.355469 18.144531 124.355469 C 19.976562 124.355469 21.367188 125.039062 22.316406 126.402344 C 23.261719 127.757812 23.738281 129.800781 23.738281 132.527344 Z M 21.441406 130.496094 C 21.441406 129.164062 21.132812 128.097656 20.519531 127.292969 C 19.914062 126.480469 19.097656 126.074219 18.066406 126.074219 C 17.054688 126.074219 16.253906 126.425781 15.660156 127.121094 C 15.074219 127.808594 14.785156 128.742188 14.785156 129.917969 C 14.785156 131.117188 15.074219 132.070312 15.660156 132.777344 C 16.253906 133.476562 17.050781 133.824219 18.050781 133.824219 C 18.652344 133.824219 19.214844 133.683594 19.738281 133.402344 C 20.269531 133.121094 20.683594 132.730469 20.988281 132.230469 C 21.289062 131.722656 21.441406 131.144531 21.441406 130.496094 Z M 11.519531 119.394531 "/>
<path style=" stroke:none;fill-rule:nonzero;fill:rgb(40%,40%,40%);fill-opacity:1;" d="M 23.832031 181.71875 C 23.832031 183.242188 23.347656 184.429688 22.378906 185.28125 C 21.410156 186.136719 20.019531 186.5625 18.207031 186.5625 C 16.433594 186.5625 15.050781 186.148438 14.050781 185.3125 C 13.058594 184.46875 12.566406 183.28125 12.566406 181.75 C 12.566406 180.667969 12.871094 179.761719 13.488281 179.03125 C 14.101562 178.292969 14.894531 177.84375 15.863281 177.6875 L 15.863281 177.640625 C 14.957031 177.433594 14.242188 176.980469 13.722656 176.28125 C 13.210938 175.574219 12.957031 174.746094 12.957031 173.796875 C 12.957031 172.539062 13.425781 171.515625 14.363281 170.734375 C 15.300781 169.953125 16.566406 169.5625 18.160156 169.5625 C 19.785156 169.5625 21.066406 169.949219 22.003906 170.71875 C 22.941406 171.480469 23.410156 172.515625 23.410156 173.828125 C 23.410156 174.765625 23.148438 175.589844 22.628906 176.296875 C 22.105469 176.996094 21.394531 177.4375 20.488281 177.625 L 20.488281 177.671875 C 21.539062 177.839844 22.355469 178.289062 22.941406 179.015625 C 23.535156 179.734375 23.832031 180.636719 23.832031 181.71875 Z M 21.628906 181.515625 C 21.628906 180.496094 21.320312 179.726562 20.707031 179.203125 C 20.101562 178.683594 19.253906 178.421875 18.160156 178.421875 C 17.085938 178.421875 16.246094 178.703125 15.644531 179.265625 C 15.039062 179.828125 14.738281 180.59375 14.738281 181.5625 C 14.738281 183.84375 15.898438 184.984375 18.222656 184.984375 C 19.367188 184.984375 20.222656 184.710938 20.785156 184.15625 C 21.347656 183.605469 21.628906 182.726562 21.628906 181.515625 Z M 21.222656 173.9375 C 21.222656 172.074219 20.199219 171.140625 18.160156 171.140625 C 17.160156 171.140625 16.398438 171.375 15.878906 171.84375 C 15.367188 172.3125 15.113281 173.011719 15.113281 173.9375 C 15.113281 174.886719 15.378906 175.609375 15.910156 176.109375 C 16.441406 176.601562 17.195312 176.84375 18.175781 176.84375 C 19.164062 176.84375 19.917969 176.617188 20.441406 176.15625 C 20.960938 175.699219 21.222656 174.960938 21.222656 173.9375 Z M 11.519531 164.601562 "/>
<path style=" stroke:none;fill-rule:nonzero;fill:rgb(40%,40%,40%);fill-opacity:1;" d="M 23.660156 216.742188 C 21.972656 219.316406 20.777344 221.335938 20.082031 222.804688 C 19.394531 224.265625 18.871094 225.707031 18.519531 227.132812 C 18.175781 228.550781 18.003906 230.019531 18.003906 231.539062 L 15.800781 231.539062 C 15.800781 229.425781 16.246094 227.207031 17.144531 224.882812 C 18.039062 222.550781 19.535156 219.863281 21.628906 216.820312 L 12.753906 216.820312 L 12.753906 215.023438 L 23.660156 215.023438 Z M 11.519531 209.8125 "/>
<path style=" stroke:none;fill-rule:nonzero;fill:rgb(40%,40%,40%);fill-opacity:1;" d="M 23.816406 271.339844 C 23.816406 273.082031 23.339844 274.457031 22.394531 275.464844 C 21.445312 276.476562 20.144531 276.980469 18.488281 276.980469 C 16.621094 276.980469 15.195312 276.289062 14.207031 274.902344 C 13.226562 273.519531 12.738281 271.507812 12.738281 268.871094 C 12.738281 266.007812 13.246094 263.808594 14.269531 262.277344 C 15.300781 260.746094 16.757812 259.980469 18.644531 259.980469 C 21.132812 259.980469 22.707031 261.105469 23.363281 263.355469 L 21.347656 263.714844 C 20.929688 262.371094 20.023438 261.699219 18.628906 261.699219 C 17.417969 261.699219 16.480469 262.261719 15.816406 263.386719 C 15.160156 264.503906 14.832031 266.121094 14.832031 268.246094 C 15.214844 267.539062 15.757812 267.003906 16.457031 266.636719 C 17.152344 266.261719 17.949219 266.074219 18.847656 266.074219 C 20.367188 266.074219 21.574219 266.554688 22.472656 267.511719 C 23.367188 268.460938 23.816406 269.738281 23.816406 271.339844 Z M 21.675781 271.433594 C 21.675781 270.238281 21.378906 269.316406 20.785156 268.667969 C 20.199219 268.023438 19.386719 267.699219 18.347656 267.699219 C 17.355469 267.699219 16.558594 267.988281 15.957031 268.558594 C 15.351562 269.132812 15.050781 269.925781 15.050781 270.933594 C 15.050781 272.207031 15.363281 273.246094 15.988281 274.058594 C 16.621094 274.871094 17.429688 275.277344 18.410156 275.277344 C 19.429688 275.277344 20.226562 274.941406 20.800781 274.261719 C 21.382812 273.574219 21.675781 272.632812 21.675781 271.433594 Z M 11.519531 255.019531 "/>
<path style=" stroke:none;fill-rule:nonzero;fill:rgb(40%,40%,40%);fill-opacity:1;" d="M 23.863281 316.582031 C 23.863281 318.324219 23.339844 319.691406 22.300781 320.691406 C 21.269531 321.691406 19.835938 322.191406 18.003906 322.191406 C 16.460938 322.191406 15.214844 321.859375 14.269531 321.191406 C 13.332031 320.515625 12.738281 319.542969 12.488281 318.269531 L 14.613281 318.019531 C 15.058594 319.65625 16.207031 320.472656 18.050781 320.472656 C 19.183594 320.472656 20.070312 320.128906 20.707031 319.441406 C 21.351562 318.753906 21.675781 317.816406 21.675781 316.628906 C 21.675781 315.589844 21.351562 314.75 20.707031 314.113281 C 20.058594 313.46875 19.191406 313.144531 18.097656 313.144531 C 17.523438 313.144531 16.992188 313.234375 16.503906 313.410156 C 16.011719 313.589844 15.519531 313.894531 15.019531 314.332031 L 12.957031 314.332031 L 13.519531 305.441406 L 22.894531 305.441406 L 22.894531 307.238281 L 15.441406 307.238281 L 15.113281 312.472656 C 16.027344 311.777344 17.167969 311.425781 18.535156 311.425781 C 20.160156 311.425781 21.449219 311.90625 22.410156 312.863281 C 23.378906 313.8125 23.863281 315.050781 23.863281 316.582031 Z M 11.519531 300.230469 "/>
<path style=" stroke:none;fill-rule:nonzero;fill:rgb(40%,40%,40%);fill-opacity:1;" d="M 21.847656 363.429688 L 21.847656 367.164062 L 19.847656 367.164062 L 19.847656 363.429688 L 12.066406 363.429688 L 12.066406 361.789062 L 19.628906 350.648438 L 21.847656 350.648438 L 21.847656 361.757812 L 24.160156 361.757812 L 24.160156 363.429688 Z M 19.847656 361.757812 L 19.847656 353.023438 C 19.667969 353.367188 19.519531 353.648438 19.394531 353.867188 C 19.277344 354.085938 19.167969 354.273438 19.066406 354.429688 L 15.285156 360.023438 C 15.066406 360.347656 14.644531 360.925781 14.019531 361.757812 Z M 11.519531 345.4375 "/>
<path style=" stroke:none;fill-rule:nonzero;fill:rgb(40%,40%,40%);fill-opacity:1;" d="M 23.816406 407.8125 C 23.816406 409.335938 23.332031 410.515625 22.363281 411.359375 C 21.394531 412.195312 20.007812 412.609375 18.207031 412.609375 C 16.539062 412.609375 15.207031 412.234375 14.207031 411.484375 C 13.214844 410.726562 12.628906 409.605469 12.441406 408.125 L 14.613281 407.9375 C 14.894531 409.886719 16.089844 410.859375 18.207031 410.859375 C 19.269531 410.859375 20.101562 410.601562 20.707031 410.078125 C 21.320312 409.558594 21.628906 408.78125 21.628906 407.75 C 21.628906 406.84375 21.277344 406.140625 20.582031 405.640625 C 19.894531 405.140625 18.898438 404.890625 17.597656 404.890625 L 16.394531 404.890625 L 16.394531 403.0625 L 17.550781 403.0625 C 18.707031 403.0625 19.601562 402.8125 20.238281 402.3125 C 20.871094 401.804688 21.191406 401.101562 21.191406 400.203125 C 21.191406 399.328125 20.929688 398.636719 20.410156 398.125 C 19.886719 397.605469 19.117188 397.34375 18.097656 397.34375 C 17.167969 397.34375 16.414062 397.585938 15.832031 398.0625 C 15.257812 398.542969 14.925781 399.214844 14.832031 400.078125 L 12.722656 399.921875 C 12.878906 398.570312 13.433594 397.511719 14.394531 396.75 C 15.363281 395.992188 16.601562 395.609375 18.113281 395.609375 C 19.769531 395.609375 21.054688 395.996094 21.972656 396.765625 C 22.898438 397.539062 23.363281 398.609375 23.363281 399.984375 C 23.363281 401.039062 23.066406 401.898438 22.472656 402.5625 C 21.878906 403.21875 21.019531 403.667969 19.894531 403.90625 L 19.894531 403.953125 C 21.132812 404.078125 22.097656 404.492188 22.785156 405.1875 C 23.472656 405.886719 23.816406 406.761719 23.816406 407.8125 Z M 11.519531 390.648438 "/>
<path style=" stroke:none;fill-rule:nonzero;fill:rgb(40%,40%,40%);fill-opacity:1;" d="M 12.722656 457.582031 L 12.722656 456.097656 C 13.128906 455.183594 13.617188 454.375 14.191406 453.675781 C 14.761719 452.980469 15.363281 452.347656 15.988281 451.785156 C 16.621094 451.214844 17.253906 450.6875 17.878906 450.207031 C 18.503906 449.71875 19.066406 449.234375 19.566406 448.753906 C 20.066406 448.265625 20.464844 447.753906 20.769531 447.222656 C 21.082031 446.691406 21.238281 446.089844 21.238281 445.410156 C 21.238281 444.503906 20.972656 443.800781 20.441406 443.300781 C 19.910156 442.800781 19.167969 442.550781 18.222656 442.550781 C 17.324219 442.550781 16.585938 442.796875 16.003906 443.285156 C 15.417969 443.777344 15.074219 444.464844 14.972656 445.347656 L 12.816406 445.144531 C 12.972656 443.824219 13.535156 442.769531 14.503906 441.988281 C 15.472656 441.207031 16.710938 440.816406 18.222656 440.816406 C 19.886719 440.816406 21.167969 441.214844 22.066406 442.003906 C 22.960938 442.785156 23.410156 443.902344 23.410156 445.347656 C 23.410156 445.984375 23.257812 446.621094 22.957031 447.253906 C 22.664062 447.890625 22.226562 448.527344 21.644531 449.160156 C 21.070312 449.785156 19.972656 450.765625 18.347656 452.097656 C 17.441406 452.828125 16.722656 453.488281 16.191406 454.082031 C 15.660156 454.675781 15.277344 455.246094 15.050781 455.785156 L 23.660156 455.785156 L 23.660156 457.582031 Z M 11.519531 435.855469 "/>
<path style=" stroke:none;fill-rule:nonzero;fill:rgb(40%,40%,40%);fill-opacity:1;" d="M 13.347656 502.792969 L 13.347656 500.996094 L 17.550781 500.996094 L 17.550781 488.292969 L 13.832031 490.949219 L 13.832031 488.964844 L 17.738281 486.277344 L 19.675781 486.277344 L 19.675781 500.996094 L 23.691406 500.996094 L 23.691406 502.792969 Z M 11.519531 481.066406 "/>
<path style=" stroke:none;fill-rule:nonzero;fill:rgb(40%,40%,40%);fill-opacity:1;" d="M 23.925781 539.734375 C 23.925781 542.496094 23.441406 544.605469 22.472656 546.0625 C 21.503906 547.511719 20.066406 548.234375 18.160156 548.234375 C 16.261719 548.234375 14.835938 547.511719 13.878906 546.0625 C 12.929688 544.617188 12.457031 542.507812 12.457031 539.734375 C 12.457031 536.902344 12.917969 534.777344 13.847656 533.359375 C 14.773438 531.945312 16.238281 531.234375 18.238281 531.234375 C 20.183594 531.234375 21.617188 531.953125 22.535156 533.390625 C 23.460938 534.820312 23.925781 536.933594 23.925781 539.734375 Z M 21.785156 539.734375 C 21.785156 537.351562 21.507812 535.625 20.957031 534.5625 C 20.402344 533.492188 19.496094 532.953125 18.238281 532.953125 C 16.933594 532.953125 16.003906 533.480469 15.441406 534.53125 C 14.878906 535.585938 14.597656 537.320312 14.597656 539.734375 C 14.597656 542.078125 14.882812 543.796875 15.457031 544.890625 C 16.027344 545.976562 16.941406 546.515625 18.191406 546.515625 C 19.429688 546.515625 20.335938 545.964844 20.910156 544.859375 C 21.492188 543.746094 21.785156 542.039062 21.785156 539.734375 Z M 11.519531 526.273438 "/>
<g clip-path="url(#X6xfkAxRSa__clip1)" clip-rule="nonzero">
<path style=" stroke:none;fill-rule:nonzero;fill:rgb(100%,62.352941%,25.098039%);fill-opacity:0.698039;" d="M 89.78125 132.800781 L 317.417969 132.800781 L 317.417969 539.679688 L 89.78125 539.679688 Z M 89.78125 132.800781 "/>
</g>
<g clip-path="url(#X6xfkAxRSa__clip2)" clip-rule="nonzero">
<path style=" stroke:none;fill-rule:nonzero;fill:rgb(100%,62.352941%,25.098039%);fill-opacity:0.698039;" d="M 405.941406 404.054688 L 633.578125 404.054688 L 633.578125 539.679688 L 405.941406 539.679688 Z M 405.941406 404.054688 "/>
</g>
<g clip-path="url(#X6xfkAxRSa__clip3)" clip-rule="nonzero">
<path style=" stroke:none;fill-rule:nonzero;fill:rgb(15.686275%,65.490196%,27.058824%);fill-opacity:0.698039;" d="M 89.78125 404.054688 L 317.417969 404.054688 L 317.417969 539.679688 L 89.78125 539.679688 Z M 89.78125 404.054688 "/>
</g>
<g clip-path="url(#X6xfkAxRSa__clip4)" clip-rule="nonzero">
<path style=" stroke:none;fill-rule:nonzero;fill:rgb(15.686275%,65.490196%,27.058824%);fill-opacity:0.698039;" d="M 405.941406 449.261719 L 633.578125 449.261719 L 633.578125 539.679688 L 405.941406 539.679688 Z M 405.941406 449.261719 "/>
</g>
<g clip-path="url(#X6xfkAxRSa__clip5)" clip-rule="nonzero">
<path style=" stroke:none;fill-rule:nonzero;fill:rgb(43.137255%,41.960784%,83.529412%);fill-opacity:0.698039;" d="M 89.78125 268.425781 L 317.417969 268.425781 L 317.417969 539.679688 L 89.78125 539.679688 Z M 89.78125 268.425781 "/>
</g>
<g clip-path="url(#X6xfkAxRSa__clip6)" clip-rule="nonzero">
<path style=" stroke:none;fill-rule:nonzero;fill:rgb(43.137255%,41.960784%,83.529412%);fill-opacity:0.698039;" d="M 722.101562 358.84375 L 949.738281 358.84375 L 949.738281 539.679688 L 722.101562 539.679688 Z M 722.101562 358.84375 "/>
</g>
</g>
</svg>
