<?xml version="1.0" encoding="UTF-8"?>
<svg xmlns="http://www.w3.org/2000/svg" xmlns:xlink="http://www.w3.org/1999/xlink" width="1000pt" height="600pt" viewBox="0 0 1000 600" version="1.1">
<g id="surface940016">
<path style="fill-rule:nonzero;fill:rgb(43.137255%,41.960784%,83.529412%);fill-opacity:0.8;stroke-width:2;stroke-linecap:butt;stroke-linejoin:miter;stroke:rgb(100%,100%,100%);stroke-opacity:1;stroke-miterlimit:10;" d="M 365 139.199219 L 405 139.199219 L 405 151.199219 L 365 151.199219 Z M 365 139.199219 " transform="matrix(2,0,0,2,0,0)"/>
<path style=" stroke:none;fill-rule:nonzero;fill:rgb(40%,40%,40%);fill-opacity:1;" d="M 831.625 296.671875 C 831.226562 297.484375 830.707031 298.070312 830.0625 298.421875 C 829.425781 298.773438 828.628906 298.953125 827.671875 298.953125 C 826.066406 298.953125 824.890625 298.417969 824.140625 297.34375 C 823.390625 296.261719 823.015625 294.625 823.015625 292.4375 C 823.015625 288.011719 824.566406 285.796875 827.671875 285.796875 C 828.628906 285.796875 829.425781 285.976562 830.0625 286.328125 C 830.707031 286.683594 831.226562 287.242188 831.625 288 L 831.640625 288 L 831.625 286.59375 L 831.625 281.328125 L 833.734375 281.328125 L 833.734375 296.109375 C 833.734375 297.421875 833.753906 298.292969 833.796875 298.71875 L 831.78125 298.71875 C 831.757812 298.59375 831.734375 298.308594 831.703125 297.859375 C 831.679688 297.402344 831.671875 297.007812 831.671875 296.671875 Z M 825.21875 292.359375 C 825.21875 294.140625 825.453125 295.417969 825.921875 296.1875 C 826.390625 296.949219 827.15625 297.328125 828.21875 297.328125 C 829.40625 297.328125 830.269531 296.917969 830.8125 296.09375 C 831.351562 295.261719 831.625 293.96875 831.625 292.21875 C 831.625 290.542969 831.351562 289.3125 830.8125 288.53125 C 830.269531 287.75 829.410156 287.359375 828.234375 287.359375 C 827.171875 287.359375 826.398438 287.757812 825.921875 288.546875 C 825.453125 289.328125 825.21875 290.601562 825.21875 292.359375 Z M 840.859375 298.953125 C 839.578125 298.953125 838.613281 298.621094 837.96875 297.953125 C 837.332031 297.277344 837.015625 296.351562 837.015625 295.171875 C 837.015625 293.859375 837.445312 292.855469 838.3125 292.15625 C 839.175781 291.449219 840.570312 291.074219 842.5 291.03125 L 845.34375 290.984375 L 845.34375 290.296875 C 845.34375 289.265625 845.125 288.527344 844.6875 288.078125 C 844.25 287.632812 843.5625 287.40625 842.625 287.40625 C 841.675781 287.40625 840.988281 287.570312 840.5625 287.890625 C 840.132812 288.214844 839.875 288.726562 839.78125 289.421875 L 837.578125 289.21875 C 837.941406 286.9375 839.640625 285.796875 842.671875 285.796875 C 844.265625 285.796875 845.460938 286.167969 846.265625 286.90625 C 847.066406 287.636719 847.46875 288.6875 847.46875 290.0625 L 847.46875 295.53125 C 847.46875 296.15625 847.550781 296.632812 847.71875 296.953125 C 847.882812 297.265625 848.195312 297.421875 848.65625 297.421875 C 848.863281 297.421875 849.09375 297.390625 849.34375 297.328125 L 849.34375 298.640625 C 848.8125 298.773438 848.269531 298.84375 847.71875 298.84375 C 846.9375 298.84375 846.367188 298.640625 846.015625 298.234375 C 845.660156 297.820312 845.457031 297.171875 845.40625 296.296875 L 845.34375 296.296875 C 844.800781 297.265625 844.171875 297.953125 843.453125 298.359375 C 842.742188 298.753906 841.878906 298.953125 840.859375 298.953125 Z M 841.328125 297.375 C 842.109375 297.375 842.796875 297.199219 843.390625 296.84375 C 843.992188 296.492188 844.46875 296.007812 844.8125 295.390625 C 845.164062 294.777344 845.34375 294.148438 845.34375 293.5 L 845.34375 292.453125 L 843.03125 292.5 C 842.039062 292.523438 841.289062 292.625 840.78125 292.8125 C 840.269531 293 839.875 293.292969 839.59375 293.6875 C 839.320312 294.074219 839.1875 294.585938 839.1875 295.21875 C 839.1875 295.90625 839.367188 296.4375 839.734375 296.8125 C 840.109375 297.1875 840.640625 297.375 841.328125 297.375 Z M 857.1875 298.71875 L 854.6875 298.71875 L 850.078125 286.03125 L 852.328125 286.03125 L 855.125 294.28125 C 855.226562 294.59375 855.5 295.523438 855.9375 297.0625 L 856.34375 295.6875 L 856.796875 294.3125 L 859.6875 286.03125 L 861.921875 286.03125 Z M 863.609375 298.71875 L 863.609375 286.03125 L 865.71875 286.03125 L 865.71875 298.71875 Z M 863.609375 283.34375 L 863.609375 281.328125 L 865.71875 281.328125 L 865.71875 283.34375 Z M 877.625 296.671875 C 877.226562 297.484375 876.707031 298.070312 876.0625 298.421875 C 875.425781 298.773438 874.628906 298.953125 873.671875 298.953125 C 872.066406 298.953125 870.890625 298.417969 870.140625 297.34375 C 869.390625 296.261719 869.015625 294.625 869.015625 292.4375 C 869.015625 288.011719 870.566406 285.796875 873.671875 285.796875 C 874.628906 285.796875 875.425781 285.976562 876.0625 286.328125 C 876.707031 286.683594 877.226562 287.242188 877.625 288 L 877.640625 288 L 877.625 286.59375 L 877.625 281.328125 L 879.734375 281.328125 L 879.734375 296.109375 C 879.734375 297.421875 879.753906 298.292969 879.796875 298.71875 L 877.78125 298.71875 C 877.757812 298.59375 877.734375 298.308594 877.703125 297.859375 C 877.679688 297.402344 877.671875 297.007812 877.671875 296.671875 Z M 871.21875 292.359375 C 871.21875 294.140625 871.453125 295.417969 871.921875 296.1875 C 872.390625 296.949219 873.15625 297.328125 874.21875 297.328125 C 875.40625 297.328125 876.269531 296.917969 876.8125 296.09375 C 877.351562 295.261719 877.625 293.96875 877.625 292.21875 C 877.625 290.542969 877.351562 289.3125 876.8125 288.53125 C 876.269531 287.75 875.410156 287.359375 874.234375 287.359375 C 873.171875 287.359375 872.398438 287.757812 871.921875 288.546875 C 871.453125 289.328125 871.21875 290.601562 871.21875 292.359375 Z M 894.296875 293.3125 C 894.296875 295.054688 893.820312 296.429688 892.875 297.4375 C 891.925781 298.449219 890.625 298.953125 888.96875 298.953125 C 887.101562 298.953125 885.675781 298.261719 884.6875 296.875 C 883.707031 295.492188 883.21875 293.480469 883.21875 290.84375 C 883.21875 287.980469 883.726562 285.78125 884.75 284.25 C 885.78125 282.71875 887.238281 281.953125 889.125 281.953125 C 891.613281 281.953125 893.1875 283.078125 893.84375 285.328125 L 891.828125 285.6875 C 891.410156 284.34375 890.503906 283.671875 889.109375 283.671875 C 887.898438 283.671875 886.960938 284.234375 886.296875 285.359375 C 885.640625 286.476562 885.3125 288.09375 885.3125 290.21875 C 885.695312 289.511719 886.238281 288.976562 886.9375 288.609375 C 887.632812 288.234375 888.429688 288.046875 889.328125 288.046875 C 890.847656 288.046875 892.054688 288.527344 892.953125 289.484375 C 893.847656 290.433594 894.296875 291.710938 894.296875 293.3125 Z M 892.15625 293.40625 C 892.15625 292.210938 891.859375 291.289062 891.265625 290.640625 C 890.679688 289.996094 889.867188 289.671875 888.828125 289.671875 C 887.835938 289.671875 887.039062 289.960938 886.4375 290.53125 C 885.832031 291.105469 885.53125 291.898438 885.53125 292.90625 C 885.53125 294.179688 885.84375 295.21875 886.46875 296.03125 C 887.101562 296.84375 887.910156 297.25 888.890625 297.25 C 889.910156 297.25 890.707031 296.914062 891.28125 296.234375 C 891.863281 295.546875 892.15625 294.605469 892.15625 293.40625 Z M 908.296875 293.3125 C 908.296875 295.054688 907.820312 296.429688 906.875 297.4375 C 905.925781 298.449219 904.625 298.953125 902.96875 298.953125 C 901.101562 298.953125 899.675781 298.261719 898.6875 296.875 C 897.707031 295.492188 897.21875 293.480469 897.21875 290.84375 C 897.21875 287.980469 897.726562 285.78125 898.75 284.25 C 899.78125 282.71875 901.238281 281.953125 903.125 281.953125 C 905.613281 281.953125 907.1875 283.078125 907.84375 285.328125 L 905.828125 285.6875 C 905.410156 284.34375 904.503906 283.671875 903.109375 283.671875 C 901.898438 283.671875 900.960938 284.234375 900.296875 285.359375 C 899.640625 286.476562 899.3125 288.09375 899.3125 290.21875 C 899.695312 289.511719 900.238281 288.976562 900.9375 288.609375 C 901.632812 288.234375 902.429688 288.046875 903.328125 288.046875 C 904.847656 288.046875 906.054688 288.527344 906.953125 289.484375 C 907.847656 290.433594 908.296875 291.710938 908.296875 293.3125 Z M 906.15625 293.40625 C 906.15625 292.210938 905.859375 291.289062 905.265625 290.640625 C 904.679688 289.996094 903.867188 289.671875 902.828125 289.671875 C 901.835938 289.671875 901.039062 289.960938 900.4375 290.53125 C 899.832031 291.105469 899.53125 291.898438 899.53125 292.90625 C 899.53125 294.179688 899.84375 295.21875 900.46875 296.03125 C 901.101562 296.84375 901.910156 297.25 902.890625 297.25 C 903.910156 297.25 904.707031 296.914062 905.28125 296.234375 C 905.863281 295.546875 906.15625 294.605469 906.15625 293.40625 Z M 922.296875 293.3125 C 922.296875 295.054688 921.820312 296.429688 920.875 297.4375 C 919.925781 298.449219 918.625 298.953125 916.96875 298.953125 C 915.101562 298.953125 913.675781 298.261719 912.6875 296.875 C 911.707031 295.492188 911.21875 293.480469 911.21875 290.84375 C 911.21875 287.980469 911.726562 285.78125 912.75 284.25 C 913.78125 282.71875 915.238281 281.953125 917.125 281.953125 C 919.613281 281.953125 921.1875 283.078125 921.84375 285.328125 L 919.828125 285.6875 C 919.410156 284.34375 918.503906 283.671875 917.109375 283.671875 C 915.898438 283.671875 914.960938 284.234375 914.296875 285.359375 C 913.640625 286.476562 913.3125 288.09375 913.3125 290.21875 C 913.695312 289.511719 914.238281 288.976562 914.9375 288.609375 C 915.632812 288.234375 916.429688 288.046875 917.328125 288.046875 C 918.847656 288.046875 920.054688 288.527344 920.953125 289.484375 C 921.847656 290.433594 922.296875 291.710938 922.296875 293.3125 Z M 920.15625 293.40625 C 920.15625 292.210938 919.859375 291.289062 919.265625 290.640625 C 918.679688 289.996094 917.867188 289.671875 916.828125 289.671875 C 915.835938 289.671875 915.039062 289.960938 914.4375 290.53125 C 913.832031 291.105469 913.53125 291.898438 913.53125 292.90625 C 913.53125 294.179688 913.84375 295.21875 914.46875 296.03125 C 915.101562 296.84375 915.910156 297.25 916.890625 297.25 C 917.910156 297.25 918.707031 296.914062 919.28125 296.234375 C 919.863281 295.546875 920.15625 294.605469 920.15625 293.40625 Z M 936.296875 293.3125 C 936.296875 295.054688 935.820312 296.429688 934.875 297.4375 C 933.925781 298.449219 932.625 298.953125 930.96875 298.953125 C 929.101562 298.953125 927.675781 298.261719 926.6875 296.875 C 925.707031 295.492188 925.21875 293.480469 925.21875 290.84375 C 925.21875 287.980469 925.726562 285.78125 926.75 284.25 C 927.78125 282.71875 929.238281 281.953125 931.125 281.953125 C 933.613281 281.953125 935.1875 283.078125 935.84375 285.328125 L 933.828125 285.6875 C 933.410156 284.34375 932.503906 283.671875 931.109375 283.671875 C 929.898438 283.671875 928.960938 284.234375 928.296875 285.359375 C 927.640625 286.476562 927.3125 288.09375 927.3125 290.21875 C 927.695312 289.511719 928.238281 288.976562 928.9375 288.609375 C 929.632812 288.234375 930.429688 288.046875 931.328125 288.046875 C 932.847656 288.046875 934.054688 288.527344 934.953125 289.484375 C 935.847656 290.433594 936.296875 291.710938 936.296875 293.3125 Z M 934.15625 293.40625 C 934.15625 292.210938 933.859375 291.289062 933.265625 290.640625 C 932.679688 289.996094 931.867188 289.671875 930.828125 289.671875 C 929.835938 289.671875 929.039062 289.960938 928.4375 290.53125 C 927.832031 291.105469 927.53125 291.898438 927.53125 292.90625 C 927.53125 294.179688 927.84375 295.21875 928.46875 296.03125 C 929.101562 296.84375 929.910156 297.25 930.890625 297.25 C 931.910156 297.25 932.707031 296.914062 933.28125 296.234375 C 933.863281 295.546875 934.15625 294.605469 934.15625 293.40625 Z M 950.296875 293.3125 C 950.296875 295.054688 949.820312 296.429688 948.875 297.4375 C 947.925781 298.449219 946.625 298.953125 944.96875 298.953125 C 943.101562 298.953125 941.675781 298.261719 940.6875 296.875 C 939.707031 295.492188 939.21875 293.480469 939.21875 290.84375 C 939.21875 287.980469 939.726562 285.78125 940.75 284.25 C 941.78125 282.71875 943.238281 281.953125 945.125 281.953125 C 947.613281 281.953125 949.1875 283.078125 949.84375 285.328125 L 947.828125 285.6875 C 947.410156 284.34375 946.503906 283.671875 945.109375 283.671875 C 943.898438 283.671875 942.960938 284.234375 942.296875 285.359375 C 941.640625 286.476562 941.3125 288.09375 941.3125 290.21875 C 941.695312 289.511719 942.238281 288.976562 942.9375 288.609375 C 943.632812 288.234375 944.429688 288.046875 945.328125 288.046875 C 946.847656 288.046875 948.054688 288.527344 948.953125 289.484375 C 949.847656 290.433594 950.296875 291.710938 950.296875 293.3125 Z M 948.15625 293.40625 C 948.15625 292.210938 947.859375 291.289062 947.265625 290.640625 C 946.679688 289.996094 945.867188 289.671875 944.828125 289.671875 C 943.835938 289.671875 943.039062 289.960938 942.4375 290.53125 C 941.832031 291.105469 941.53125 291.898438 941.53125 292.90625 C 941.53125 294.179688 941.84375 295.21875 942.46875 296.03125 C 943.101562 296.84375 943.910156 297.25 944.890625 297.25 C 945.910156 297.25 946.707031 296.914062 947.28125 296.234375 C 947.863281 295.546875 948.15625 294.605469 948.15625 293.40625 Z M 964.296875 293.3125 C 964.296875 295.054688 963.820312 296.429688 962.875 297.4375 C 961.925781 298.449219 960.625 298.953125 958.96875 298.953125 C 957.101562 298.953125 955.675781 298.261719 954.6875 296.875 C 953.707031 295.492188 953.21875 293.480469 953.21875 290.84375 C 953.21875 287.980469 953.726562 285.78125 954.75 284.25 C 955.78125 282.71875 957.238281 281.953125 959.125 281.953125 C 961.613281 281.953125 963.1875 283.078125 963.84375 285.328125 L 961.828125 285.6875 C 961.410156 284.34375 960.503906 283.671875 959.109375 283.671875 C 957.898438 283.671875 956.960938 284.234375 956.296875 285.359375 C 955.640625 286.476562 955.3125 288.09375 955.3125 290.21875 C 955.695312 289.511719 956.238281 288.976562 956.9375 288.609375 C 957.632812 288.234375 958.429688 288.046875 959.328125 288.046875 C 960.847656 288.046875 962.054688 288.527344 962.953125 289.484375 C 963.847656 290.433594 964.296875 291.710938 964.296875 293.3125 Z M 962.15625 293.40625 C 962.15625 292.210938 961.859375 291.289062 961.265625 290.640625 C 960.679688 289.996094 959.867188 289.671875 958.828125 289.671875 C 957.835938 289.671875 957.039062 289.960938 956.4375 290.53125 C 955.832031 291.105469 955.53125 291.898438 955.53125 292.90625 C 955.53125 294.179688 955.84375 295.21875 956.46875 296.03125 C 957.101562 296.84375 957.910156 297.25 958.890625 297.25 C 959.910156 297.25 960.707031 296.914062 961.28125 296.234375 C 961.863281 295.546875 962.15625 294.605469 962.15625 293.40625 Z M 978.296875 293.3125 C 978.296875 295.054688 977.820312 296.429688 976.875 297.4375 C 975.925781 298.449219 974.625 298.953125 972.96875 298.953125 C 971.101562 298.953125 969.675781 298.261719 968.6875 296.875 C 967.707031 295.492188 967.21875 293.480469 967.21875 290.84375 C 967.21875 287.980469 967.726562 285.78125 968.75 284.25 C 969.78125 282.71875 971.238281 281.953125 973.125 281.953125 C 975.613281 281.953125 977.1875 283.078125 977.84375 285.328125 L 975.828125 285.6875 C 975.410156 284.34375 974.503906 283.671875 973.109375 283.671875 C 971.898438 283.671875 970.960938 284.234375 970.296875 285.359375 C 969.640625 286.476562 969.3125 288.09375 969.3125 290.21875 C 969.695312 289.511719 970.238281 288.976562 970.9375 288.609375 C 971.632812 288.234375 972.429688 288.046875 973.328125 288.046875 C 974.847656 288.046875 976.054688 288.527344 976.953125 289.484375 C 977.847656 290.433594 978.296875 291.710938 978.296875 293.3125 Z M 976.15625 293.40625 C 976.15625 292.210938 975.859375 291.289062 975.265625 290.640625 C 974.679688 289.996094 973.867188 289.671875 972.828125 289.671875 C 971.835938 289.671875 971.039062 289.960938 970.4375 290.53125 C 969.832031 291.105469 969.53125 291.898438 969.53125 292.90625 C 969.53125 294.179688 969.84375 295.21875 970.46875 296.03125 C 971.101562 296.84375 971.910156 297.25 972.890625 297.25 C 973.910156 297.25 974.707031 296.914062 975.28125 296.234375 C 975.863281 295.546875 976.15625 294.605469 976.15625 293.40625 Z M 822 276.992188 "/>
<path style="fill-rule:nonzero;fill:rgb(15.686275%,65.490196%,27.058824%);fill-opacity:0.8;stroke-width:2;stroke-linecap:butt;stroke-linejoin:miter;stroke:rgb(100%,100%,100%);stroke-opacity:1;stroke-miterlimit:10;" d="M 365 161.199219 L 405 161.199219 L 405 173.199219 L 365 173.199219 Z M 365 161.199219 " transform="matrix(2,0,0,2,0,0)"/>
<path style=" stroke:none;fill-rule:nonzero;fill:rgb(40%,40%,40%);fill-opacity:1;" d="M 826.234375 331.578125 L 826.234375 342.71875 L 824.125 342.71875 L 824.125 331.578125 L 822.34375 331.578125 L 822.34375 330.03125 L 824.125 330.03125 L 824.125 328.609375 C 824.125 327.453125 824.375 326.621094 824.875 326.109375 C 825.382812 325.601562 826.164062 325.34375 827.21875 325.34375 C 827.800781 325.34375 828.296875 325.390625 828.703125 325.484375 L 828.703125 327.09375 C 828.347656 327.03125 828.035156 327 827.765625 327 C 827.222656 327 826.832031 327.140625 826.59375 327.421875 C 826.351562 327.695312 826.234375 328.1875 826.234375 328.90625 L 826.234375 330.03125 L 828.703125 330.03125 L 828.703125 331.578125 Z M 832.859375 342.953125 C 831.578125 342.953125 830.613281 342.621094 829.96875 341.953125 C 829.332031 341.277344 829.015625 340.351562 829.015625 339.171875 C 829.015625 337.859375 829.445312 336.855469 830.3125 336.15625 C 831.175781 335.449219 832.570312 335.074219 834.5 335.03125 L 837.34375 334.984375 L 837.34375 334.296875 C 837.34375 333.265625 837.125 332.527344 836.6875 332.078125 C 836.25 331.632812 835.5625 331.40625 834.625 331.40625 C 833.675781 331.40625 832.988281 331.570312 832.5625 331.890625 C 832.132812 332.214844 831.875 332.726562 831.78125 333.421875 L 829.578125 333.21875 C 829.941406 330.9375 831.640625 329.796875 834.671875 329.796875 C 836.265625 329.796875 837.460938 330.167969 838.265625 330.90625 C 839.066406 331.636719 839.46875 332.6875 839.46875 334.0625 L 839.46875 339.53125 C 839.46875 340.15625 839.550781 340.632812 839.71875 340.953125 C 839.882812 341.265625 840.195312 341.421875 840.65625 341.421875 C 840.863281 341.421875 841.09375 341.390625 841.34375 341.328125 L 841.34375 342.640625 C 840.8125 342.773438 840.269531 342.84375 839.71875 342.84375 C 838.9375 342.84375 838.367188 342.640625 838.015625 342.234375 C 837.660156 341.820312 837.457031 341.171875 837.40625 340.296875 L 837.34375 340.296875 C 836.800781 341.265625 836.171875 341.953125 835.453125 342.359375 C 834.742188 342.753906 833.878906 342.953125 832.859375 342.953125 Z M 833.328125 341.375 C 834.109375 341.375 834.796875 341.199219 835.390625 340.84375 C 835.992188 340.492188 836.46875 340.007812 836.8125 339.390625 C 837.164062 338.777344 837.34375 338.148438 837.34375 337.5 L 837.34375 336.453125 L 835.03125 336.5 C 834.039062 336.523438 833.289062 336.625 832.78125 336.8125 C 832.269531 337 831.875 337.292969 831.59375 337.6875 C 831.320312 338.074219 831.1875 338.585938 831.1875 339.21875 C 831.1875 339.90625 831.367188 340.4375 831.734375 340.8125 C 832.109375 341.1875 832.640625 341.375 833.328125 341.375 Z M 851.5625 342.71875 L 847.28125 336.921875 L 845.734375 338.203125 L 845.734375 342.71875 L 843.625 342.71875 L 843.625 325.328125 L 845.734375 325.328125 L 845.734375 336.1875 L 851.296875 330.03125 L 853.765625 330.03125 L 848.625 335.484375 L 854.03125 342.71875 Z M 857.234375 336.828125 C 857.234375 338.277344 857.535156 339.398438 858.140625 340.1875 C 858.742188 340.980469 859.625 341.375 860.78125 341.375 C 861.6875 341.375 862.414062 341.195312 862.96875 340.828125 C 863.519531 340.453125 863.894531 339.984375 864.09375 339.421875 L 865.9375 339.953125 C 865.1875 341.953125 863.46875 342.953125 860.78125 342.953125 C 858.90625 342.953125 857.472656 342.398438 856.484375 341.28125 C 855.503906 340.15625 855.015625 338.496094 855.015625 336.296875 C 855.015625 334.203125 855.503906 332.601562 856.484375 331.484375 C 857.472656 330.359375 858.875 329.796875 860.6875 329.796875 C 864.414062 329.796875 866.28125 332.046875 866.28125 336.546875 L 866.28125 336.828125 Z M 864.109375 335.203125 C 863.984375 333.871094 863.640625 332.898438 863.078125 332.28125 C 862.515625 331.667969 861.707031 331.359375 860.65625 331.359375 C 859.632812 331.359375 858.820312 331.703125 858.21875 332.390625 C 857.625 333.070312 857.304688 334.007812 857.265625 335.203125 Z M 880.40625 334.453125 C 880.40625 337.214844 879.921875 339.324219 878.953125 340.78125 C 877.984375 342.230469 876.546875 342.953125 874.640625 342.953125 C 872.742188 342.953125 871.316406 342.230469 870.359375 340.78125 C 869.410156 339.335938 868.9375 337.226562 868.9375 334.453125 C 868.9375 331.621094 869.398438 329.496094 870.328125 328.078125 C 871.253906 326.664062 872.71875 325.953125 874.71875 325.953125 C 876.664062 325.953125 878.097656 326.671875 879.015625 328.109375 C 879.941406 329.539062 880.40625 331.652344 880.40625 334.453125 Z M 878.265625 334.453125 C 878.265625 332.070312 877.988281 330.34375 877.4375 329.28125 C 876.882812 328.210938 875.976562 327.671875 874.71875 327.671875 C 873.414062 327.671875 872.484375 328.199219 871.921875 329.25 C 871.359375 330.304688 871.078125 332.039062 871.078125 334.453125 C 871.078125 336.796875 871.363281 338.515625 871.9375 339.609375 C 872.507812 340.695312 873.421875 341.234375 874.671875 341.234375 C 875.910156 341.234375 876.816406 340.683594 877.390625 339.578125 C 877.972656 338.464844 878.265625 336.757812 878.265625 334.453125 Z M 886.234375 331.578125 L 886.234375 342.71875 L 884.125 342.71875 L 884.125 331.578125 L 882.34375 331.578125 L 882.34375 330.03125 L 884.125 330.03125 L 884.125 328.609375 C 884.125 327.453125 884.375 326.621094 884.875 326.109375 C 885.382812 325.601562 886.164062 325.34375 887.21875 325.34375 C 887.800781 325.34375 888.296875 325.390625 888.703125 325.484375 L 888.703125 327.09375 C 888.347656 327.03125 888.035156 327 887.765625 327 C 887.222656 327 886.832031 327.140625 886.59375 327.421875 C 886.351562 327.695312 886.234375 328.1875 886.234375 328.90625 L 886.234375 330.03125 L 888.703125 330.03125 L 888.703125 331.578125 Z M 892.859375 342.953125 C 891.578125 342.953125 890.613281 342.621094 889.96875 341.953125 C 889.332031 341.277344 889.015625 340.351562 889.015625 339.171875 C 889.015625 337.859375 889.445312 336.855469 890.3125 336.15625 C 891.175781 335.449219 892.570312 335.074219 894.5 335.03125 L 897.34375 334.984375 L 897.34375 334.296875 C 897.34375 333.265625 897.125 332.527344 896.6875 332.078125 C 896.25 331.632812 895.5625 331.40625 894.625 331.40625 C 893.675781 331.40625 892.988281 331.570312 892.5625 331.890625 C 892.132812 332.214844 891.875 332.726562 891.78125 333.421875 L 889.578125 333.21875 C 889.941406 330.9375 891.640625 329.796875 894.671875 329.796875 C 896.265625 329.796875 897.460938 330.167969 898.265625 330.90625 C 899.066406 331.636719 899.46875 332.6875 899.46875 334.0625 L 899.46875 339.53125 C 899.46875 340.15625 899.550781 340.632812 899.71875 340.953125 C 899.882812 341.265625 900.195312 341.421875 900.65625 341.421875 C 900.863281 341.421875 901.09375 341.390625 901.34375 341.328125 L 901.34375 342.640625 C 900.8125 342.773438 900.269531 342.84375 899.71875 342.84375 C 898.9375 342.84375 898.367188 342.640625 898.015625 342.234375 C 897.660156 341.820312 897.457031 341.171875 897.40625 340.296875 L 897.34375 340.296875 C 896.800781 341.265625 896.171875 341.953125 895.453125 342.359375 C 894.742188 342.753906 893.878906 342.953125 892.859375 342.953125 Z M 893.328125 341.375 C 894.109375 341.375 894.796875 341.199219 895.390625 340.84375 C 895.992188 340.492188 896.46875 340.007812 896.8125 339.390625 C 897.164062 338.777344 897.34375 338.148438 897.34375 337.5 L 897.34375 336.453125 L 895.03125 336.5 C 894.039062 336.523438 893.289062 336.625 892.78125 336.8125 C 892.269531 337 891.875 337.292969 891.59375 337.6875 C 891.320312 338.074219 891.1875 338.585938 891.1875 339.21875 C 891.1875 339.90625 891.367188 340.4375 891.734375 340.8125 C 892.109375 341.1875 892.640625 341.375 893.328125 341.375 Z M 911.671875 342.71875 L 911.671875 334.671875 C 911.671875 333.839844 911.585938 333.195312 911.421875 332.734375 C 911.253906 332.277344 910.988281 331.949219 910.625 331.75 C 910.269531 331.542969 909.75 331.4375 909.0625 331.4375 C 908.039062 331.4375 907.238281 331.789062 906.65625 332.484375 C 906.070312 333.171875 905.78125 334.136719 905.78125 335.375 L 905.78125 342.71875 L 903.671875 342.71875 L 903.671875 332.75 C 903.671875 331.273438 903.644531 330.367188 903.59375 330.03125 L 905.59375 330.03125 C 905.59375 330.074219 905.597656 330.183594 905.609375 330.359375 C 905.617188 330.527344 905.628906 330.726562 905.640625 330.953125 C 905.648438 331.171875 905.664062 331.589844 905.6875 332.203125 L 905.71875 332.203125 C 906.195312 331.328125 906.753906 330.710938 907.390625 330.34375 C 908.035156 329.980469 908.828125 329.796875 909.765625 329.796875 C 911.160156 329.796875 912.179688 330.148438 912.828125 330.84375 C 913.472656 331.53125 913.796875 332.671875 913.796875 334.265625 L 913.796875 342.71875 Z M 822 320.992188 "/>
<path style="fill-rule:nonzero;fill:rgb(100%,62.352941%,25.098039%);fill-opacity:0.8;stroke-width:2;stroke-linecap:butt;stroke-linejoin:miter;stroke:rgb(100%,100%,100%);stroke-opacity:1;stroke-miterlimit:10;" d="M 365 183.199219 L 405 183.199219 L 405 195.199219 L 365 195.199219 Z M 365 183.199219 " transform="matrix(2,0,0,2,0,0)"/>
<path style=" stroke:none;fill-rule:nonzero;fill:rgb(40%,40%,40%);fill-opacity:1;" d="M 825.71875 376.203125 C 826.164062 375.382812 826.707031 374.777344 827.34375 374.390625 C 827.988281 373.996094 828.796875 373.796875 829.765625 373.796875 C 831.140625 373.796875 832.15625 374.140625 832.8125 374.828125 C 833.46875 375.515625 833.796875 376.664062 833.796875 378.265625 L 833.796875 386.71875 L 831.671875 386.71875 L 831.671875 378.671875 C 831.671875 377.789062 831.585938 377.132812 831.421875 376.703125 C 831.253906 376.265625 830.984375 375.949219 830.609375 375.75 C 830.234375 375.542969 829.71875 375.4375 829.0625 375.4375 C 828.0625 375.4375 827.265625 375.78125 826.671875 376.46875 C 826.078125 377.15625 825.78125 378.078125 825.78125 379.234375 L 825.78125 386.71875 L 823.671875 386.71875 L 823.671875 369.328125 L 825.78125 369.328125 L 825.78125 373.84375 C 825.78125 374.324219 825.765625 374.820312 825.734375 375.328125 C 825.703125 375.839844 825.6875 376.132812 825.6875 376.203125 Z M 847.140625 383.21875 C 847.140625 384.40625 846.6875 385.328125 845.78125 385.984375 C 844.875 386.632812 843.609375 386.953125 841.984375 386.953125 C 840.410156 386.953125 839.195312 386.695312 838.34375 386.171875 C 837.488281 385.652344 836.929688 384.839844 836.671875 383.734375 L 838.53125 383.375 C 838.707031 384.054688 839.078125 384.554688 839.640625 384.875 C 840.203125 385.1875 840.984375 385.34375 841.984375 385.34375 C 843.054688 385.34375 843.835938 385.183594 844.328125 384.859375 C 844.828125 384.527344 845.078125 384.03125 845.078125 383.375 C 845.078125 382.875 844.90625 382.46875 844.5625 382.15625 C 844.21875 381.84375 843.664062 381.589844 842.90625 381.390625 L 841.390625 380.984375 C 840.179688 380.671875 839.320312 380.367188 838.8125 380.0625 C 838.300781 379.761719 837.898438 379.398438 837.609375 378.96875 C 837.316406 378.542969 837.171875 378.015625 837.171875 377.390625 C 837.171875 376.234375 837.582031 375.355469 838.40625 374.75 C 839.226562 374.148438 840.429688 373.84375 842.015625 373.84375 C 843.410156 373.84375 844.519531 374.089844 845.34375 374.578125 C 846.164062 375.070312 846.6875 375.855469 846.90625 376.9375 L 845.015625 377.171875 C 844.898438 376.609375 844.582031 376.183594 844.0625 375.890625 C 843.550781 375.589844 842.867188 375.4375 842.015625 375.4375 C 841.054688 375.4375 840.347656 375.585938 839.890625 375.875 C 839.441406 376.15625 839.21875 376.589844 839.21875 377.171875 C 839.21875 377.539062 839.3125 377.839844 839.5 378.078125 C 839.6875 378.308594 839.960938 378.507812 840.328125 378.671875 C 840.703125 378.828125 841.476562 379.054688 842.65625 379.34375 C 843.769531 379.625 844.570312 379.886719 845.0625 380.125 C 845.5625 380.367188 845.953125 380.632812 846.234375 380.921875 C 846.523438 381.203125 846.75 381.539062 846.90625 381.921875 C 847.0625 382.296875 847.140625 382.730469 847.140625 383.21875 Z M 849.625 386.71875 L 849.625 369.328125 L 851.734375 369.328125 L 851.734375 386.71875 Z M 855.609375 386.71875 L 855.609375 374.03125 L 857.71875 374.03125 L 857.71875 386.71875 Z M 855.609375 371.34375 L 855.609375 369.328125 L 857.71875 369.328125 L 857.71875 371.34375 Z M 863.6875 374.03125 L 863.6875 382.078125 C 863.6875 382.914062 863.765625 383.5625 863.921875 384.03125 C 864.085938 384.492188 864.347656 384.824219 864.703125 385.03125 C 865.066406 385.230469 865.597656 385.328125 866.296875 385.328125 C 867.304688 385.328125 868.101562 384.980469 868.6875 384.28125 C 869.28125 383.585938 869.578125 382.621094 869.578125 381.390625 L 869.578125 374.03125 L 871.6875 374.03125 L 871.6875 384.015625 C 871.6875 385.484375 871.707031 386.386719 871.75 386.71875 L 869.765625 386.71875 C 869.753906 386.679688 869.742188 386.574219 869.734375 386.40625 C 869.734375 386.230469 869.722656 386.03125 869.703125 385.8125 C 869.691406 385.585938 869.679688 385.164062 869.671875 384.546875 L 869.640625 384.546875 C 869.148438 385.421875 868.585938 386.042969 867.953125 386.40625 C 867.316406 386.769531 866.523438 386.953125 865.578125 386.953125 C 864.191406 386.953125 863.175781 386.609375 862.53125 385.921875 C 861.882812 385.226562 861.5625 384.078125 861.5625 382.484375 L 861.5625 374.03125 Z M 877.6875 374.03125 L 877.6875 382.078125 C 877.6875 382.914062 877.765625 383.5625 877.921875 384.03125 C 878.085938 384.492188 878.347656 384.824219 878.703125 385.03125 C 879.066406 385.230469 879.597656 385.328125 880.296875 385.328125 C 881.304688 385.328125 882.101562 384.980469 882.6875 384.28125 C 883.28125 383.585938 883.578125 382.621094 883.578125 381.390625 L 883.578125 374.03125 L 885.6875 374.03125 L 885.6875 384.015625 C 885.6875 385.484375 885.707031 386.386719 885.75 386.71875 L 883.765625 386.71875 C 883.753906 386.679688 883.742188 386.574219 883.734375 386.40625 C 883.734375 386.230469 883.722656 386.03125 883.703125 385.8125 C 883.691406 385.585938 883.679688 385.164062 883.671875 384.546875 L 883.640625 384.546875 C 883.148438 385.421875 882.585938 386.042969 881.953125 386.40625 C 881.316406 386.769531 880.523438 386.953125 879.578125 386.953125 C 878.191406 386.953125 877.175781 386.609375 876.53125 385.921875 C 875.882812 385.226562 875.5625 384.078125 875.5625 382.484375 L 875.5625 374.03125 Z M 899.140625 383.21875 C 899.140625 384.40625 898.6875 385.328125 897.78125 385.984375 C 896.875 386.632812 895.609375 386.953125 893.984375 386.953125 C 892.410156 386.953125 891.195312 386.695312 890.34375 386.171875 C 889.488281 385.652344 888.929688 384.839844 888.671875 383.734375 L 890.53125 383.375 C 890.707031 384.054688 891.078125 384.554688 891.640625 384.875 C 892.203125 385.1875 892.984375 385.34375 893.984375 385.34375 C 895.054688 385.34375 895.835938 385.183594 896.328125 384.859375 C 896.828125 384.527344 897.078125 384.03125 897.078125 383.375 C 897.078125 382.875 896.90625 382.46875 896.5625 382.15625 C 896.21875 381.84375 895.664062 381.589844 894.90625 381.390625 L 893.390625 380.984375 C 892.179688 380.671875 891.320312 380.367188 890.8125 380.0625 C 890.300781 379.761719 889.898438 379.398438 889.609375 378.96875 C 889.316406 378.542969 889.171875 378.015625 889.171875 377.390625 C 889.171875 376.234375 889.582031 375.355469 890.40625 374.75 C 891.226562 374.148438 892.429688 373.84375 894.015625 373.84375 C 895.410156 373.84375 896.519531 374.089844 897.34375 374.578125 C 898.164062 375.070312 898.6875 375.855469 898.90625 376.9375 L 897.015625 377.171875 C 896.898438 376.609375 896.582031 376.183594 896.0625 375.890625 C 895.550781 375.589844 894.867188 375.4375 894.015625 375.4375 C 893.054688 375.4375 892.347656 375.585938 891.890625 375.875 C 891.441406 376.15625 891.21875 376.589844 891.21875 377.171875 C 891.21875 377.539062 891.3125 377.839844 891.5 378.078125 C 891.6875 378.308594 891.960938 378.507812 892.328125 378.671875 C 892.703125 378.828125 893.476562 379.054688 894.65625 379.34375 C 895.769531 379.625 896.570312 379.886719 897.0625 380.125 C 897.5625 380.367188 897.953125 380.632812 898.234375 380.921875 C 898.523438 381.203125 898.75 381.539062 898.90625 381.921875 C 899.0625 382.296875 899.140625 382.730469 899.140625 383.21875 Z M 906.5 386.625 C 905.800781 386.8125 905.085938 386.90625 904.359375 386.90625 C 902.671875 386.90625 901.828125 385.949219 901.828125 384.03125 L 901.828125 375.578125 L 900.359375 375.578125 L 900.359375 374.03125 L 901.90625 374.03125 L 902.53125 371.203125 L 903.9375 371.203125 L 903.9375 374.03125 L 906.28125 374.03125 L 906.28125 375.578125 L 903.9375 375.578125 L 903.9375 383.578125 C 903.9375 384.183594 904.035156 384.609375 904.234375 384.859375 C 904.429688 385.109375 904.78125 385.234375 905.28125 385.234375 C 905.5625 385.234375 905.96875 385.179688 906.5 385.0625 Z M 909.21875 380.3125 C 909.21875 382 909.484375 383.25 910.015625 384.0625 C 910.546875 384.875 911.347656 385.28125 912.421875 385.28125 C 913.171875 385.28125 913.796875 385.078125 914.296875 384.671875 C 914.804688 384.265625 915.117188 383.640625 915.234375 382.796875 L 917.375 382.9375 C 917.207031 384.15625 916.6875 385.132812 915.8125 385.859375 C 914.9375 386.589844 913.828125 386.953125 912.484375 386.953125 C 910.710938 386.953125 909.359375 386.398438 908.421875 385.28125 C 907.484375 384.15625 907.015625 382.515625 907.015625 380.359375 C 907.015625 378.234375 907.484375 376.609375 908.421875 375.484375 C 909.359375 374.359375 910.703125 373.796875 912.453125 373.796875 C 913.753906 373.796875 914.832031 374.136719 915.6875 374.8125 C 916.539062 375.480469 917.078125 376.40625 917.296875 377.59375 L 915.125 377.75 C 915.019531 377.054688 914.742188 376.496094 914.296875 376.078125 C 913.847656 375.664062 913.21875 375.453125 912.40625 375.453125 C 911.28125 375.453125 910.46875 375.828125 909.96875 376.578125 C 909.46875 377.320312 909.21875 378.5625 909.21875 380.3125 Z M 930.40625 378.453125 C 930.40625 381.214844 929.921875 383.324219 928.953125 384.78125 C 927.984375 386.230469 926.546875 386.953125 924.640625 386.953125 C 922.742188 386.953125 921.316406 386.230469 920.359375 384.78125 C 919.410156 383.335938 918.9375 381.226562 918.9375 378.453125 C 918.9375 375.621094 919.398438 373.496094 920.328125 372.078125 C 921.253906 370.664062 922.71875 369.953125 924.71875 369.953125 C 926.664062 369.953125 928.097656 370.671875 929.015625 372.109375 C 929.941406 373.539062 930.40625 375.652344 930.40625 378.453125 Z M 928.265625 378.453125 C 928.265625 376.070312 927.988281 374.34375 927.4375 373.28125 C 926.882812 372.210938 925.976562 371.671875 924.71875 371.671875 C 923.414062 371.671875 922.484375 372.199219 921.921875 373.25 C 921.359375 374.304688 921.078125 376.039062 921.078125 378.453125 C 921.078125 380.796875 921.363281 382.515625 921.9375 383.609375 C 922.507812 384.695312 923.421875 385.234375 924.671875 385.234375 C 925.910156 385.234375 926.816406 384.683594 927.390625 383.578125 C 927.972656 382.464844 928.265625 380.757812 928.265625 378.453125 Z M 933.828125 386.71875 L 933.828125 384.921875 L 938.03125 384.921875 L 938.03125 372.21875 L 934.3125 374.875 L 934.3125 372.890625 L 938.21875 370.203125 L 940.15625 370.203125 L 940.15625 384.921875 L 944.171875 384.921875 L 944.171875 386.71875 Z M 958.40625 378.453125 C 958.40625 381.214844 957.921875 383.324219 956.953125 384.78125 C 955.984375 386.230469 954.546875 386.953125 952.640625 386.953125 C 950.742188 386.953125 949.316406 386.230469 948.359375 384.78125 C 947.410156 383.335938 946.9375 381.226562 946.9375 378.453125 C 946.9375 375.621094 947.398438 373.496094 948.328125 372.078125 C 949.253906 370.664062 950.71875 369.953125 952.71875 369.953125 C 954.664062 369.953125 956.097656 370.671875 957.015625 372.109375 C 957.941406 373.539062 958.40625 375.652344 958.40625 378.453125 Z M 956.265625 378.453125 C 956.265625 376.070312 955.988281 374.34375 955.4375 373.28125 C 954.882812 372.210938 953.976562 371.671875 952.71875 371.671875 C 951.414062 371.671875 950.484375 372.199219 949.921875 373.25 C 949.359375 374.304688 949.078125 376.039062 949.078125 378.453125 C 949.078125 380.796875 949.363281 382.515625 949.9375 383.609375 C 950.507812 384.695312 951.421875 385.234375 952.671875 385.234375 C 953.910156 385.234375 954.816406 384.683594 955.390625 383.578125 C 955.972656 382.464844 956.265625 380.757812 956.265625 378.453125 Z M 972.296875 381.3125 C 972.296875 383.054688 971.820312 384.429688 970.875 385.4375 C 969.925781 386.449219 968.625 386.953125 966.96875 386.953125 C 965.101562 386.953125 963.675781 386.261719 962.6875 384.875 C 961.707031 383.492188 961.21875 381.480469 961.21875 378.84375 C 961.21875 375.980469 961.726562 373.78125 962.75 372.25 C 963.78125 370.71875 965.238281 369.953125 967.125 369.953125 C 969.613281 369.953125 971.1875 371.078125 971.84375 373.328125 L 969.828125 373.6875 C 969.410156 372.34375 968.503906 371.671875 967.109375 371.671875 C 965.898438 371.671875 964.960938 372.234375 964.296875 373.359375 C 963.640625 374.476562 963.3125 376.09375 963.3125 378.21875 C 963.695312 377.511719 964.238281 376.976562 964.9375 376.609375 C 965.632812 376.234375 966.429688 376.046875 967.328125 376.046875 C 968.847656 376.046875 970.054688 376.527344 970.953125 377.484375 C 971.847656 378.433594 972.296875 379.710938 972.296875 381.3125 Z M 970.15625 381.40625 C 970.15625 380.210938 969.859375 379.289062 969.265625 378.640625 C 968.679688 377.996094 967.867188 377.671875 966.828125 377.671875 C 965.835938 377.671875 965.039062 377.960938 964.4375 378.53125 C 963.832031 379.105469 963.53125 379.898438 963.53125 380.90625 C 963.53125 382.179688 963.84375 383.21875 964.46875 384.03125 C 965.101562 384.84375 965.910156 385.25 966.890625 385.25 C 967.910156 385.25 968.707031 384.914062 969.28125 384.234375 C 969.863281 383.546875 970.15625 382.605469 970.15625 381.40625 Z M 822 364.992188 "/>
<path style=" stroke:none;fill-rule:nonzero;fill:rgb(40%,40%,40%);fill-opacity:1;" d="M 430.375 45.359375 C 429.394531 45.242188 428.40625 45.242188 427.40625 45.359375 C 427.488281 43.804688 427.53125 42.453125 427.53125 41.296875 L 427.53125 36.359375 L 422.546875 36.359375 C 422.472656 38.089844 422.15625 39.683594 421.59375 41.140625 C 421.039062 42.597656 420.117188 44.019531 418.828125 45.40625 C 418.203125 44.6875 417.203125 44.273438 415.828125 44.171875 C 417.578125 42.703125 418.679688 41.292969 419.140625 39.9375 C 419.609375 38.574219 419.84375 36.902344 419.84375 34.921875 L 419.796875 22.78125 L 438.328125 22.78125 L 438.328125 41.328125 C 438.328125 42.628906 437.898438 43.535156 437.046875 44.046875 C 436.234375 44.503906 434.800781 44.726562 432.75 44.71875 C 432.988281 43.675781 432.570312 42.59375 431.5 41.46875 C 432.914062 41.636719 433.921875 41.726562 434.515625 41.734375 C 435.109375 41.746094 435.4375 41.726562 435.5 41.671875 C 435.613281 41.546875 435.65625 41.132812 435.625 40.421875 L 435.625 36.359375 L 430.25 36.359375 L 430.25 41.296875 C 430.25 42.453125 430.289062 43.804688 430.375 45.359375 Z M 430.25 33.953125 L 435.625 33.953125 L 435.625 31.046875 L 430.25 31.046875 Z M 427.53125 33.953125 L 427.53125 31.046875 L 422.5625 31.046875 L 422.5625 33.953125 Z M 430.25 28.640625 L 435.625 28.640625 L 435.625 25.1875 L 430.25 25.1875 Z M 427.53125 28.640625 L 427.53125 25.1875 L 422.53125 25.203125 L 422.53125 28.640625 Z M 446 37.359375 L 446 26.265625 L 463.15625 26.21875 L 463.15625 35.515625 L 460.390625 35.515625 L 460.390625 34.75 L 448.734375 34.75 L 448.734375 37.359375 C 448.734375 39.226562 448.164062 40.902344 447.03125 42.390625 C 445.90625 43.867188 444.328125 44.945312 442.296875 45.625 C 442.054688 44.726562 441.296875 43.894531 440.015625 43.125 C 442.222656 42.738281 443.769531 42.027344 444.65625 40.984375 C 445.550781 39.945312 446 38.734375 446 37.359375 Z M 453.90625 27.359375 C 452.988281 25.734375 451.941406 24.195312 450.765625 22.734375 L 453.078125 20.90625 C 454.335938 22.492188 455.460938 24.15625 456.453125 25.90625 Z M 448.734375 32.265625 L 460.390625 32.265625 L 460.390625 28.71875 L 448.734375 28.75 Z M 471.125 36.109375 L 468.515625 36.109375 L 468.515625 26.875 L 472.609375 26.875 C 471.972656 26.15625 470.890625 25.132812 469.359375 23.796875 L 471.1875 21.703125 C 472.832031 23.140625 474.375 24.683594 475.8125 26.328125 L 475.1875 26.875 L 477.640625 27.140625 C 477.585938 27.328125 477.128906 27.324219 476.265625 27.125 L 477.875 25.1875 C 478.84375 23.992188 479.335938 23.382812 479.359375 23.359375 L 481.09375 21.359375 C 481.726562 22.046875 482.421875 22.667969 483.171875 23.21875 L 481.453125 25.203125 L 479.890625 26.890625 L 479.90625 26.875 L 484.53125 26.875 L 484.53125 36.109375 L 481.890625 36.109375 L 481.890625 34.796875 L 471.125 34.796875 Z M 481.890625 29.078125 L 471.125 29.078125 L 471.125 32.59375 L 481.890625 32.59375 Z M 486.125 44.34375 C 485.019531 42.664062 483.8125 41.078125 482.5 39.578125 L 484.6875 37.828125 C 486.082031 39.402344 487.363281 41.089844 488.53125 42.890625 Z M 477.484375 41.34375 C 476.609375 39.761719 475.503906 38.355469 474.171875 37.125 L 476.1875 35.15625 C 477.6875 36.5625 478.953125 38.195312 479.984375 40.046875 Z M 481.984375 39.34375 C 482.785156 39.84375 483.648438 40.125 484.578125 40.1875 L 483.765625 43.859375 C 483.691406 44.316406 483.503906 44.707031 483.203125 45.03125 C 482.898438 45.363281 482.519531 45.53125 482.0625 45.53125 L 473.15625 45.53125 C 472.332031 45.53125 471.632812 45.269531 471.0625 44.75 C 470.488281 44.226562 470.203125 43.535156 470.203125 42.671875 L 470.203125 39.921875 C 470.203125 38.839844 470.160156 37.5625 470.078125 36.09375 C 471.035156 36.199219 472.003906 36.199219 472.984375 36.09375 C 472.898438 37.5625 472.859375 38.839844 472.859375 39.921875 L 472.859375 42.671875 C 472.859375 42.796875 472.890625 42.898438 472.953125 42.984375 C 473.023438 43.066406 473.101562 43.109375 473.1875 43.109375 L 480.875 43.109375 C 480.988281 43.109375 481.097656 43.050781 481.203125 42.9375 C 481.316406 42.832031 481.394531 42.679688 481.4375 42.484375 Z M 463.625 43.71875 C 464.800781 41.65625 465.875 39.539062 466.84375 37.359375 L 469.453125 38.390625 C 468.460938 40.695312 467.347656 42.90625 466.109375 45.03125 Z M 512.0625 27.046875 C 511.988281 27.859375 511.988281 28.679688 512.0625 29.5 C 510.8125 29.4375 509.753906 29.40625 508.890625 29.40625 L 491.859375 29.40625 C 490.992188 29.40625 489.9375 29.4375 488.6875 29.5 C 488.78125 28.679688 488.78125 27.859375 488.6875 27.046875 C 489.9375 27.089844 490.992188 27.109375 491.859375 27.109375 L 498.53125 27.109375 L 498.53125 24.71875 L 494.125 24.71875 C 493.257812 24.71875 492.210938 24.75 490.984375 24.8125 C 491.054688 23.992188 491.054688 23.171875 490.984375 22.359375 C 492.210938 22.402344 493.257812 22.421875 494.125 22.421875 L 506.265625 22.421875 C 507.128906 22.421875 508.1875 22.402344 509.4375 22.359375 C 509.363281 23.171875 509.363281 23.992188 509.4375 24.8125 C 508.1875 24.75 507.128906 24.71875 506.265625 24.71875 L 501.1875 24.71875 L 501.1875 27.109375 L 508.890625 27.109375 C 509.753906 27.109375 510.8125 27.089844 512.0625 27.046875 Z M 508.890625 46.703125 C 506.097656 44.410156 502.976562 42.648438 499.53125 41.421875 L 500.296875 38.46875 C 504.117188 39.835938 507.488281 41.71875 510.40625 44.125 Z M 498.859375 33.625 C 499.847656 33.710938 500.8125 33.679688 501.75 33.53125 C 501.875 36.25 501.363281 38.574219 500.21875 40.5 C 499.625 41.5 498.898438 42.382812 498.046875 43.140625 C 497.191406 43.898438 496.171875 44.671875 494.984375 45.453125 C 493.796875 46.242188 492.707031 46.703125 491.71875 46.828125 C 491.238281 45.773438 489.785156 44.859375 487.359375 44.078125 C 492.929688 43.585938 496.476562 41.90625 498 39.03125 C 498.75 37.542969 499.035156 35.742188 498.859375 33.625 Z M 495.53125 41.625 C 494.582031 41.511719 493.632812 41.511719 492.6875 41.625 C 492.769531 39.980469 492.800781 38.527344 492.78125 37.265625 L 492.78125 30.890625 L 507.84375 30.890625 L 507.84375 41.234375 L 505.234375 41.234375 L 505.234375 33.21875 L 495.40625 33.21875 L 495.40625 37.265625 C 495.40625 38.527344 495.445312 39.980469 495.53125 41.625 Z M 520.234375 42.765625 C 519.316406 42.691406 518.390625 42.691406 517.453125 42.765625 C 517.535156 41.339844 517.578125 40.109375 517.578125 39.078125 L 517.578125 38.640625 C 517.234375 38.640625 516.53125 38.667969 515.46875 38.71875 C 515.53125 37.992188 515.53125 37.25 515.46875 36.5 C 516.53125 36.554688 517.234375 36.578125 517.578125 36.578125 L 517.578125 35.546875 C 517.234375 35.546875 516.53125 35.574219 515.46875 35.625 C 515.53125 34.875 515.53125 34.132812 515.46875 33.390625 C 516.019531 33.421875 516.289062 33.554688 516.28125 33.78125 L 515.71875 33.5 L 515.71875 41.0625 C 515.71875 42.105469 515.753906 43.335938 515.828125 44.765625 C 514.910156 44.679688 513.984375 44.679688 513.046875 44.765625 C 513.117188 43.335938 513.15625 42.105469 513.15625 41.0625 L 513.171875 28.875 L 517.53125 28.875 L 517.53125 27.109375 L 515.25 27.109375 C 514.550781 27.109375 513.644531 27.136719 512.53125 27.1875 C 512.632812 26.4375 512.632812 25.699219 512.53125 24.96875 C 513.644531 25.023438 514.550781 25.046875 515.25 25.046875 L 517.515625 25.046875 L 517.453125 21.78125 C 518.359375 21.886719 519.269531 21.886719 520.1875 21.78125 L 520.125 25.046875 L 522.84375 25.046875 C 523.53125 25.046875 524.425781 25.023438 525.53125 24.96875 C 525.445312 25.699219 525.445312 26.4375 525.53125 27.1875 C 524.425781 27.136719 523.53125 27.109375 522.84375 27.109375 L 520.109375 27.109375 L 520.109375 28.875 L 524.90625 28.875 L 524.90625 41.921875 C 524.90625 43.878906 523.53125 44.859375 520.78125 44.859375 L 520.046875 44.859375 C 520.242188 43.898438 519.878906 42.878906 518.953125 41.796875 C 520.203125 41.953125 521.070312 42.039062 521.5625 42.046875 C 522.050781 42.046875 522.304688 42.042969 522.328125 42.03125 C 522.347656 42.011719 522.359375 41.761719 522.359375 41.28125 L 522.359375 30.921875 L 521.484375 30.671875 C 521.546875 30.507812 521.992188 30.554688 522.828125 30.8125 C 522.316406 32.03125 521.800781 32.949219 521.28125 33.5625 C 521.28125 33.5 521.757812 33.445312 522.71875 33.390625 C 522.613281 34.132812 522.613281 34.871094 522.71875 35.609375 L 519.828125 35.3125 L 519.96875 35.265625 L 520.125 36.5625 L 522.609375 36.515625 C 522.546875 37.257812 522.546875 37.984375 522.609375 38.703125 L 520.125 38.65625 L 520.125 39.078125 C 520.125 40.109375 520.160156 41.339844 520.234375 42.765625 Z M 519.8125 30.921875 L 515.671875 30.875 C 515.703125 30.875 515.671875 30.875 515.578125 30.875 L 516.78125 30 L 519.03125 33.828125 L 518.453125 33.8125 L 518.3125 33.484375 C 518.894531 32.652344 519.394531 31.796875 519.8125 30.921875 Z M 535.25 27.34375 L 533.21875 28.96875 L 530.734375 24.671875 L 532.78125 23 Z M 525.453125 45.671875 C 524.992188 44.929688 524.109375 44.46875 522.796875 44.28125 C 524.785156 42.8125 526.164062 41.277344 526.9375 39.671875 C 527.96875 37.601562 528.503906 35.132812 528.546875 32.265625 L 527.203125 32.265625 C 526.503906 32.265625 525.625 32.296875 524.5625 32.359375 C 524.613281 31.558594 524.613281 30.746094 524.5625 29.921875 C 525.625 30.007812 526.503906 30.046875 527.203125 30.046875 L 528.546875 30.046875 L 528.546875 25.8125 C 528.546875 24.710938 528.519531 23.402344 528.46875 21.890625 C 529.3125 21.996094 530.160156 21.996094 531.015625 21.890625 C 530.960938 23.402344 530.9375 24.710938 530.9375 25.8125 L 530.9375 30.046875 L 533.296875 30.046875 C 533.984375 30.046875 534.875 30.007812 535.96875 29.921875 C 535.894531 30.746094 535.894531 31.558594 535.96875 32.359375 C 534.875 32.296875 533.984375 32.265625 533.296875 32.265625 L 531.5 32.265625 C 531.738281 34.109375 532.195312 35.984375 532.875 37.890625 C 533.738281 40.070312 535.085938 42.25 536.921875 44.4375 C 535.859375 44.601562 535.054688 45 534.515625 45.625 C 532.179688 42.664062 530.742188 39.132812 530.203125 35.015625 C 530.253906 37.257812 529.867188 39.230469 529.046875 40.9375 C 528.222656 42.632812 527.023438 44.210938 525.453125 45.671875 Z M 540.234375 45.15625 C 539.242188 45.050781 538.257812 45.050781 537.28125 45.15625 C 537.363281 43.625 537.40625 42.289062 537.40625 41.140625 L 537.40625 33 L 544.515625 33 L 544.515625 25.59375 C 544.515625 24.46875 544.476562 23.136719 544.40625 21.59375 C 545.375 21.710938 546.347656 21.710938 547.328125 21.59375 C 547.253906 23.136719 547.21875 24.46875 547.21875 25.59375 L 547.21875 26.578125 L 555.0625 26.578125 C 555.957031 26.578125 557.046875 26.542969 558.328125 26.46875 C 558.253906 27.324219 558.253906 28.171875 558.328125 29.015625 C 557.046875 28.945312 555.957031 28.90625 555.0625 28.90625 L 547.21875 28.90625 L 547.21875 33 L 554.953125 33 L 554.953125 45.046875 L 552.25 45.046875 L 552.25 43.78125 L 540.140625 43.78125 C 540.140625 43.875 540.171875 44.332031 540.234375 45.15625 Z M 552.25 35.359375 L 540.09375 35.359375 L 540.09375 41.421875 L 552.25 41.421875 Z M 575.015625 40.578125 C 575.015625 40.789062 575.050781 40.945312 575.125 41.046875 C 575.195312 41.152344 575.273438 41.203125 575.359375 41.203125 L 580.3125 41.203125 C 580.363281 41.203125 580.394531 41.171875 580.40625 41.109375 C 580.5 40.871094 580.554688 40.601562 580.578125 40.296875 L 581.15625 36.359375 C 582.019531 36.945312 582.90625 37.234375 583.8125 37.234375 L 582.984375 42.390625 C 582.898438 42.859375 582.707031 43.253906 582.40625 43.578125 C 582.1875 43.742188 581.941406 43.828125 581.671875 43.828125 L 575.34375 43.828125 C 574.445312 43.828125 573.707031 43.523438 573.125 42.921875 C 572.550781 42.320312 572.265625 41.539062 572.265625 40.578125 L 572.265625 25.71875 C 572.265625 24.542969 572.226562 23.171875 572.15625 21.609375 C 573.132812 21.714844 574.125 21.71875 575.125 21.625 C 575.050781 23.179688 575.015625 24.542969 575.015625 25.71875 L 575.015625 31.21875 C 575.671875 30.875 576.457031 30.320312 577.375 29.546875 C 578.289062 28.765625 579.359375 27.6875 580.578125 26.3125 C 581.265625 26.980469 582.015625 27.589844 582.828125 28.140625 C 580.679688 30.796875 578.078125 32.84375 575.015625 34.28125 Z M 571.84375 29.78125 C 571.738281 30.679688 571.738281 31.578125 571.84375 32.484375 C 570.457031 32.402344 569.269531 32.359375 568.28125 32.359375 L 565.03125 32.359375 L 565.03125 40.828125 L 571 36.125 L 572.21875 38.40625 C 571.507812 38.875 570.9375 39.28125 570.5 39.625 L 563.40625 45.71875 L 561.890625 43.65625 C 562.160156 42.914062 562.296875 42.25 562.296875 41.65625 L 562.296875 26.1875 C 562.296875 25.011719 562.253906 23.636719 562.171875 22.0625 C 563.171875 22.179688 564.164062 22.179688 565.15625 22.0625 C 565.070312 23.636719 565.03125 25.011719 565.03125 26.1875 L 565.03125 29.875 L 568.28125 29.875 C 569.269531 29.875 570.457031 29.84375 571.84375 29.78125 Z M 416 19.28125 "/>
<path style="fill-rule:nonzero;fill:rgb(43.137255%,41.960784%,83.529412%);fill-opacity:0.8;stroke-width:2;stroke-linecap:butt;stroke-linejoin:bevel;stroke:rgb(100%,100%,100%);stroke-opacity:1;stroke-miterlimit:10;" d="M 177.5 35.400391 C 225.46875 35.400391 269.650391 61.462891 292.853516 103.445312 C 316.058594 145.429688 314.619141 196.705078 289.097656 237.322266 C 263.576172 277.939453 218.003906 301.482422 170.109375 298.792969 C 122.216797 296.103516 79.564453 267.605469 58.751953 224.386719 L 118.126953 195.792969 C 128.533203 217.402344 149.857422 231.652344 173.804688 232.996094 C 197.751953 234.341797 220.539062 222.568359 233.298828 202.261719 C 246.060547 181.953125 246.779297 156.314453 235.177734 135.322266 C 223.576172 114.330078 201.484375 101.300781 177.5 101.300781 Z M 177.5 35.400391 " transform="matrix(2,0,0,2,0,0)"/>
<path style="fill-rule:nonzero;fill:rgb(15.686275%,65.490196%,27.058824%);fill-opacity:0.8;stroke-width:2;stroke-linecap:butt;stroke-linejoin:bevel;stroke:rgb(100%,100%,100%);stroke-opacity:1;stroke-miterlimit:10;" d="M 58.751953 224.386719 C 36.785156 178.771484 42.888672 124.607422 74.455078 85.023438 L 125.976562 126.111328 C 110.193359 145.902344 107.142578 172.986328 118.126953 195.792969 Z M 58.751953 224.386719 " transform="matrix(2,0,0,2,0,0)"/>
<path style="fill-rule:nonzero;fill:rgb(100%,62.352941%,25.098039%);fill-opacity:0.8;stroke-width:2;stroke-linecap:butt;stroke-linejoin:bevel;stroke:rgb(100%,100%,100%);stroke-opacity:1;stroke-miterlimit:10;" d="M 74.455078 85.023438 C 99.462891 53.664062 137.390625 35.400391 177.5 35.400391 L 177.5 101.300781 C 157.445312 101.300781 138.480469 110.431641 125.976562 126.111328 Z M 74.455078 85.023438 " transform="matrix(2,0,0,2,0,0)"/>
<path style=" stroke:none;fill-rule:nonzero;fill:rgb(100%,100%,100%);fill-opacity:1;" d="M 274.328125 160.585938 L 274.328125 164.320312 L 272.328125 164.320312 L 272.328125 160.585938 L 264.546875 160.585938 L 264.546875 158.945312 L 272.109375 147.804688 L 274.328125 147.804688 L 274.328125 158.914062 L 276.640625 158.914062 L 276.640625 160.585938 Z M 272.328125 158.914062 L 272.328125 150.179688 C 272.148438 150.523438 272 150.804688 271.875 151.023438 C 271.757812 151.242188 271.648438 151.429688 271.546875 151.585938 L 267.765625 157.179688 C 267.546875 157.503906 267.125 158.082031 266.5 158.914062 Z M 264 142.59375 "/>
<path style=" stroke:none;fill-rule:nonzero;fill:rgb(100%,100%,100%);fill-opacity:1;" d="M 164.34375 314.945312 C 164.34375 316.6875 163.820312 318.054688 162.78125 319.054688 C 161.75 320.054688 160.316406 320.554688 158.484375 320.554688 C 156.941406 320.554688 155.695312 320.222656 154.75 319.554688 C 153.8125 318.878906 153.21875 317.90625 152.96875 316.632812 L 155.09375 316.382812 C 155.539062 318.019531 156.6875 318.835938 158.53125 318.835938 C 159.664062 318.835938 160.550781 318.492188 161.1875 317.804688 C 161.832031 317.117188 162.15625 316.179688 162.15625 314.992188 C 162.15625 313.953125 161.832031 313.113281 161.1875 312.476562 C 160.539062 311.832031 159.671875 311.507812 158.578125 311.507812 C 158.003906 311.507812 157.472656 311.597656 156.984375 311.773438 C 156.492188 311.953125 156 312.257812 155.5 312.695312 L 153.4375 312.695312 L 154 303.804688 L 163.375 303.804688 L 163.375 305.601562 L 155.921875 305.601562 L 155.59375 310.835938 C 156.507812 310.140625 157.648438 309.789062 159.015625 309.789062 C 160.640625 309.789062 161.929688 310.269531 162.890625 311.226562 C 163.859375 312.175781 164.34375 313.414062 164.34375 314.945312 Z M 152 298.59375 "/>
<path style=" stroke:none;fill-rule:nonzero;fill:rgb(100%,100%,100%);fill-opacity:1;" d="M 509.828125 448.320312 L 509.828125 446.523438 L 514.03125 446.523438 L 514.03125 433.820312 L 510.3125 436.476562 L 510.3125 434.492188 L 514.21875 431.804688 L 516.15625 431.804688 L 516.15625 446.523438 L 520.171875 446.523438 L 520.171875 448.320312 Z M 534.21875 439.726562 C 534.21875 442.5625 533.695312 444.742188 532.65625 446.273438 C 531.625 447.796875 530.148438 448.554688 528.234375 448.554688 C 526.941406 448.554688 525.90625 448.285156 525.125 447.742188 C 524.351562 447.203125 523.800781 446.320312 523.46875 445.101562 L 525.484375 444.789062 C 525.898438 446.164062 526.828125 446.851562 528.265625 446.851562 C 529.484375 446.851562 530.421875 446.289062 531.078125 445.164062 C 531.742188 444.039062 532.09375 442.4375 532.125 440.351562 C 531.8125 441.050781 531.273438 441.613281 530.515625 442.039062 C 529.765625 442.46875 528.9375 442.679688 528.03125 442.679688 C 526.539062 442.679688 525.347656 442.175781 524.453125 441.164062 C 523.566406 440.144531 523.125 438.796875 523.125 437.117188 C 523.125 435.390625 523.609375 434.03125 524.578125 433.039062 C 525.546875 432.050781 526.894531 431.554688 528.625 431.554688 C 530.457031 431.554688 531.847656 432.238281 532.796875 433.601562 C 533.742188 434.957031 534.21875 437 534.21875 439.726562 Z M 531.921875 437.695312 C 531.921875 436.363281 531.613281 435.296875 531 434.492188 C 530.394531 433.679688 529.578125 433.273438 528.546875 433.273438 C 527.535156 433.273438 526.734375 433.625 526.140625 434.320312 C 525.554688 435.007812 525.265625 435.941406 525.265625 437.117188 C 525.265625 438.316406 525.554688 439.269531 526.140625 439.976562 C 526.734375 440.675781 527.53125 441.023438 528.53125 441.023438 C 529.132812 441.023438 529.695312 440.882812 530.21875 440.601562 C 530.75 440.320312 531.164062 439.929688 531.46875 439.429688 C 531.769531 438.921875 531.921875 438.34375 531.921875 437.695312 Z M 508 426.59375 "/>
</g>
</svg>
